<svg width="23" height="34" viewBox="0 0 23 34" fill="none" xmlns="http://www.w3.org/2000/svg">
<path d="M3.45703 24.5205L1.10352 31H0.141602L2.85156 23.8906H3.47168L3.45703 24.5205ZM5.42969 31L3.07129 24.5205L3.05664 23.8906H3.67676L6.39648 31H5.42969ZM5.30762 28.3682V29.1396H1.31348V28.3682H5.30762ZM8.12012 23.5V31H7.21191V23.5H8.12012ZM11.3477 25.7168L9.04297 28.1826L7.75391 29.5205L7.68066 28.5586L8.60352 27.4551L10.2441 25.7168H11.3477ZM10.5225 31L8.6377 28.4805L9.10645 27.6748L11.5869 31H10.5225ZM15.5127 29.7793V25.7168H16.4209V31H15.5566L15.5127 29.7793ZM15.6836 28.666L16.0596 28.6562C16.0596 29.0078 16.0221 29.3333 15.9473 29.6328C15.8757 29.929 15.7585 30.1862 15.5957 30.4043C15.4329 30.6224 15.2197 30.7933 14.9561 30.917C14.6924 31.0374 14.3717 31.0977 13.9941 31.0977C13.737 31.0977 13.501 31.0602 13.2861 30.9854C13.0745 30.9105 12.8923 30.7949 12.7393 30.6387C12.5863 30.4824 12.4674 30.279 12.3828 30.0283C12.3014 29.7777 12.2607 29.4766 12.2607 29.125V25.7168H13.1641V29.1348C13.1641 29.3724 13.1901 29.5693 13.2422 29.7256C13.2975 29.8786 13.3708 30.0007 13.4619 30.0918C13.5563 30.1797 13.6605 30.2415 13.7744 30.2773C13.8916 30.3132 14.012 30.3311 14.1357 30.3311C14.5199 30.3311 14.8242 30.2578 15.0488 30.1113C15.2734 29.9616 15.4346 29.7614 15.5322 29.5107C15.6331 29.2568 15.6836 28.9753 15.6836 28.666ZM18.7012 26.8447V31H17.7979V25.7168H18.6523L18.7012 26.8447ZM18.4863 28.1582L18.1104 28.1436C18.1136 27.7822 18.1673 27.4486 18.2715 27.1426C18.3757 26.8333 18.5221 26.5648 18.7109 26.3369C18.8997 26.109 19.1243 25.9333 19.3848 25.8096C19.6484 25.6826 19.9398 25.6191 20.2588 25.6191C20.5192 25.6191 20.7536 25.6549 20.9619 25.7266C21.1702 25.7949 21.3477 25.9056 21.4941 26.0586C21.6439 26.2116 21.7578 26.4102 21.8359 26.6543C21.9141 26.8952 21.9531 27.1898 21.9531 27.5381V31H21.0449V27.5283C21.0449 27.2516 21.0042 27.0303 20.9229 26.8643C20.8415 26.695 20.7227 26.5729 20.5664 26.498C20.4102 26.4199 20.2181 26.3809 19.9902 26.3809C19.7656 26.3809 19.5605 26.4281 19.375 26.5225C19.1927 26.6169 19.0348 26.7471 18.9014 26.9131C18.7712 27.0791 18.6686 27.2695 18.5938 27.4844C18.5221 27.696 18.4863 27.9206 18.4863 28.1582Z" fill="#182748"/>
<path d="M19.6905 16.3784C20.717 15.1444 21.431 13.6814 21.772 12.1133C22.113 10.5452 22.071 8.91814 21.6495 7.3697C21.2281 5.82126 20.4396 4.39702 19.3507 3.21747C18.2619 2.03791 16.9047 1.13774 15.394 0.593109C13.8834 0.0484744 12.2637 -0.124604 10.6719 0.0885164C9.08011 0.301637 7.56313 0.894685 6.24926 1.81749C4.93539 2.7403 3.86329 3.96572 3.12365 5.39009C2.38402 6.81446 1.9986 8.39587 2 10.0005C2.00054 12.3333 2.82327 14.5913 4.32381 16.3784L4.30951 16.3906C4.35955 16.4506 4.41673 16.502 4.4682 16.5613C4.53253 16.6348 4.60186 16.7041 4.66834 16.7755C4.86848 16.9927 5.07434 17.2012 5.29021 17.3969C5.35597 17.4569 5.42388 17.5126 5.49035 17.5697C5.71909 17.7669 5.95426 17.954 6.198 18.1283C6.22945 18.1497 6.25805 18.1775 6.2895 18.1997V18.1911C7.96362 19.3682 9.96076 20 12.0079 20C14.055 20 16.0521 19.3682 17.7262 18.1911V18.1997C17.7577 18.1775 17.7856 18.1497 17.8177 18.1283C18.0608 17.9533 18.2966 17.7669 18.5254 17.5697C18.5919 17.5126 18.6598 17.4562 18.7255 17.3969C18.9414 17.2005 19.1473 16.9927 19.3474 16.7755C19.4139 16.7041 19.4825 16.6348 19.5475 16.5613C19.5983 16.502 19.6562 16.4506 19.7062 16.3899L19.6905 16.3784ZM12.0072 4.28687C12.6433 4.28687 13.2652 4.47536 13.7942 4.82852C14.3232 5.18167 14.7354 5.68362 14.9789 6.27089C15.2223 6.85816 15.286 7.50438 15.1619 8.12782C15.0378 8.75127 14.7315 9.32394 14.2816 9.77342C13.8318 10.2229 13.2586 10.529 12.6347 10.653C12.0107 10.777 11.364 10.7134 10.7762 10.4701C10.1885 10.2269 9.6861 9.81492 9.33266 9.28639C8.97922 8.75786 8.79057 8.13647 8.79057 7.50081C8.79057 6.64842 9.12946 5.83094 9.73268 5.22821C10.3359 4.62548 11.1541 4.28687 12.0072 4.28687V4.28687ZM6.29378 16.3784C6.30618 15.4407 6.6876 14.5455 7.35551 13.8865C8.02343 13.2276 8.92413 12.8579 9.86276 12.8574H14.1515C15.0902 12.8579 15.9909 13.2276 16.6588 13.8865C17.3267 14.5455 17.7081 15.4407 17.7205 16.3784C16.1529 17.79 14.1174 18.5711 12.0072 18.5711C9.89689 18.5711 7.86145 17.79 6.29378 16.3784V16.3784Z" fill="#C7C7C7"/>
</svg>
