<svg width="37" height="34" viewBox="0 0 37 34" fill="none" xmlns="http://www.w3.org/2000/svg">
<path d="M7 7.52066C7 7.19434 7.15921 6.88855 7.42654 6.70142L16.4265 0.401424C16.7709 0.1604 17.2291 0.1604 17.5735 0.401424L26.5735 6.70142C26.8408 6.88855 27 7.19434 27 7.52066V18C27 18.5304 26.7659 19.0391 26.3491 19.4142C25.9324 19.7893 25.3671 20 24.7778 20H21.3333C20.781 20 20.3333 19.5523 20.3333 19V14C20.3333 13.4477 19.8856 13 19.3333 13H14.6667C14.1144 13 13.6667 13.4477 13.6667 14V19C13.6667 19.5523 13.219 20 12.6667 20H9.22222C8.63285 20 8.06762 19.7893 7.65087 19.4142C7.23413 19.0391 7 18.5304 7 18V7.52066Z" fill="#C7C7C7"/>
<path d="M3.35938 27.6748H1.55762L1.54785 26.918H3.18359C3.45378 26.918 3.68978 26.8724 3.8916 26.7812C4.09342 26.6901 4.24967 26.5599 4.36035 26.3906C4.47428 26.2181 4.53125 26.013 4.53125 25.7754C4.53125 25.515 4.48079 25.3034 4.37988 25.1406C4.28223 24.9746 4.13086 24.8542 3.92578 24.7793C3.72396 24.7012 3.4668 24.6621 3.1543 24.6621H1.76758V31H0.825195V23.8906H3.1543C3.51888 23.8906 3.8444 23.9281 4.13086 24.0029C4.41732 24.0745 4.65983 24.1885 4.8584 24.3447C5.06022 24.4977 5.21322 24.693 5.31738 24.9307C5.42155 25.1683 5.47363 25.4531 5.47363 25.7852C5.47363 26.0781 5.39876 26.3434 5.24902 26.5811C5.09928 26.8154 4.89095 27.0075 4.62402 27.1572C4.36035 27.307 4.05111 27.403 3.69629 27.4453L3.35938 27.6748ZM3.31543 31H1.18652L1.71875 30.2334H3.31543C3.61491 30.2334 3.86882 30.1813 4.07715 30.0771C4.28874 29.973 4.44987 29.8265 4.56055 29.6377C4.67122 29.4456 4.72656 29.2194 4.72656 28.959C4.72656 28.6953 4.67936 28.4674 4.58496 28.2754C4.49056 28.0833 4.34245 27.9352 4.14062 27.8311C3.9388 27.7269 3.67839 27.6748 3.35938 27.6748H2.0166L2.02637 26.918H3.8623L4.0625 27.1914C4.4043 27.2207 4.69401 27.3184 4.93164 27.4844C5.16927 27.6471 5.34993 27.8555 5.47363 28.1094C5.60059 28.3633 5.66406 28.6432 5.66406 28.9492C5.66406 29.3919 5.56641 29.7663 5.37109 30.0723C5.17904 30.375 4.90723 30.6061 4.55566 30.7656C4.2041 30.9219 3.79069 31 3.31543 31ZM9.11133 31.0977C8.74349 31.0977 8.40983 31.0358 8.11035 30.9121C7.81413 30.7852 7.55859 30.6077 7.34375 30.3799C7.13216 30.152 6.9694 29.8818 6.85547 29.5693C6.74154 29.2568 6.68457 28.915 6.68457 28.5439V28.3389C6.68457 27.9092 6.74805 27.5267 6.875 27.1914C7.00195 26.8529 7.17448 26.5664 7.39258 26.332C7.61068 26.0977 7.85807 25.9202 8.13477 25.7998C8.41146 25.6794 8.69792 25.6191 8.99414 25.6191C9.37174 25.6191 9.69727 25.6842 9.9707 25.8145C10.2474 25.9447 10.4736 26.127 10.6494 26.3613C10.8252 26.5924 10.9554 26.8659 11.04 27.1816C11.1247 27.4941 11.167 27.8359 11.167 28.207V28.6123H7.22168V27.875H10.2637V27.8066C10.2507 27.5723 10.2018 27.3444 10.1172 27.123C10.0358 26.9017 9.9056 26.7194 9.72656 26.5762C9.54753 26.4329 9.30339 26.3613 8.99414 26.3613C8.78906 26.3613 8.60026 26.4053 8.42773 26.4932C8.25521 26.5778 8.1071 26.7048 7.9834 26.874C7.8597 27.0433 7.76367 27.25 7.69531 27.4941C7.62695 27.7383 7.59277 28.0199 7.59277 28.3389V28.5439C7.59277 28.7946 7.62695 29.0306 7.69531 29.252C7.76693 29.4701 7.86947 29.6621 8.00293 29.8281C8.13965 29.9941 8.30404 30.1243 8.49609 30.2188C8.69141 30.3132 8.91276 30.3604 9.16016 30.3604C9.47917 30.3604 9.74935 30.2952 9.9707 30.165C10.1921 30.0348 10.3857 29.8607 10.5518 29.6426L11.0986 30.0771C10.9847 30.2497 10.8398 30.4141 10.6641 30.5703C10.4883 30.7266 10.2718 30.8535 10.0146 30.9512C9.76074 31.0488 9.45964 31.0977 9.11133 31.0977ZM13.125 26.5469V31H12.2217V25.7168H13.1006L13.125 26.5469ZM14.7754 25.6875L14.7705 26.5273C14.6956 26.5111 14.624 26.5013 14.5557 26.498C14.4906 26.4915 14.4157 26.4883 14.3311 26.4883C14.1227 26.4883 13.9388 26.5208 13.7793 26.5859C13.6198 26.651 13.4847 26.7422 13.374 26.8594C13.2633 26.9766 13.1755 27.1165 13.1104 27.2793C13.0485 27.4388 13.0078 27.6146 12.9883 27.8066L12.7344 27.9531C12.7344 27.6341 12.7653 27.3346 12.8271 27.0547C12.8923 26.7747 12.9915 26.5273 13.125 26.3125C13.2585 26.0944 13.4277 25.9251 13.6328 25.8047C13.8411 25.681 14.0885 25.6191 14.375 25.6191C14.4401 25.6191 14.515 25.6273 14.5996 25.6436C14.6842 25.6566 14.7428 25.6712 14.7754 25.6875ZM18.5303 30.0967V27.377C18.5303 27.1686 18.488 26.988 18.4033 26.835C18.3219 26.6787 18.1982 26.5583 18.0322 26.4736C17.8662 26.389 17.6611 26.3467 17.417 26.3467C17.1891 26.3467 16.9889 26.3857 16.8164 26.4639C16.6471 26.542 16.5137 26.6445 16.416 26.7715C16.3216 26.8984 16.2744 27.0352 16.2744 27.1816H15.3711C15.3711 26.9928 15.4199 26.8057 15.5176 26.6201C15.6152 26.4346 15.7552 26.2669 15.9375 26.1172C16.123 25.9642 16.3444 25.8438 16.6016 25.7559C16.862 25.6647 17.1517 25.6191 17.4707 25.6191C17.8548 25.6191 18.1934 25.6842 18.4863 25.8145C18.7826 25.9447 19.0137 26.1416 19.1797 26.4053C19.349 26.6657 19.4336 26.9928 19.4336 27.3867V29.8477C19.4336 30.0234 19.4482 30.2106 19.4775 30.4092C19.5101 30.6077 19.5573 30.7786 19.6191 30.9219V31H18.6768C18.6312 30.8958 18.5954 30.7575 18.5693 30.585C18.5433 30.4092 18.5303 30.2464 18.5303 30.0967ZM18.6865 27.7969L18.6963 28.4316H17.7832C17.526 28.4316 17.2965 28.4528 17.0947 28.4951C16.8929 28.5342 16.7236 28.5944 16.5869 28.6758C16.4502 28.7572 16.346 28.8597 16.2744 28.9834C16.2028 29.1038 16.167 29.2454 16.167 29.4082C16.167 29.5742 16.2044 29.7256 16.2793 29.8623C16.3542 29.999 16.4665 30.1081 16.6162 30.1895C16.7692 30.2676 16.9564 30.3066 17.1777 30.3066C17.4544 30.3066 17.6986 30.248 17.9102 30.1309C18.1217 30.0137 18.2894 29.8704 18.4131 29.7012C18.54 29.5319 18.6084 29.3675 18.6182 29.208L19.0039 29.6426C18.9811 29.7793 18.9193 29.9307 18.8184 30.0967C18.7174 30.2627 18.5824 30.4222 18.4131 30.5752C18.2471 30.7249 18.0485 30.8503 17.8174 30.9512C17.5895 31.0488 17.3324 31.0977 17.0459 31.0977C16.6878 31.0977 16.3737 31.0277 16.1035 30.8877C15.8366 30.7477 15.6283 30.5605 15.4785 30.3262C15.332 30.0885 15.2588 29.8232 15.2588 29.5303C15.2588 29.2471 15.3141 28.998 15.4248 28.7832C15.5355 28.5651 15.695 28.3844 15.9033 28.2412C16.1117 28.0947 16.3623 27.984 16.6553 27.9092C16.9482 27.8343 17.2754 27.7969 17.6367 27.7969H18.6865ZM21.7578 26.8447V31H20.8545V25.7168H21.709L21.7578 26.8447ZM21.543 28.1582L21.167 28.1436C21.1702 27.7822 21.224 27.4486 21.3281 27.1426C21.4323 26.8333 21.5788 26.5648 21.7676 26.3369C21.9564 26.109 22.181 25.9333 22.4414 25.8096C22.7051 25.6826 22.9964 25.6191 23.3154 25.6191C23.5758 25.6191 23.8102 25.6549 24.0186 25.7266C24.2269 25.7949 24.4043 25.9056 24.5508 26.0586C24.7005 26.2116 24.8145 26.4102 24.8926 26.6543C24.9707 26.8952 25.0098 27.1898 25.0098 27.5381V31H24.1016V27.5283C24.1016 27.2516 24.0609 27.0303 23.9795 26.8643C23.8981 26.695 23.7793 26.5729 23.623 26.498C23.4668 26.4199 23.2747 26.3809 23.0469 26.3809C22.8223 26.3809 22.6172 26.4281 22.4316 26.5225C22.2493 26.6169 22.0915 26.7471 21.958 26.9131C21.8278 27.0791 21.7253 27.2695 21.6504 27.4844C21.5788 27.696 21.543 27.9206 21.543 28.1582ZM29.7119 29.9746V23.5H30.6201V31H29.79L29.7119 29.9746ZM26.1572 28.417V28.3145C26.1572 27.9108 26.2061 27.5446 26.3037 27.2158C26.4046 26.8838 26.5462 26.599 26.7285 26.3613C26.9141 26.1237 27.1338 25.9414 27.3877 25.8145C27.6449 25.6842 27.9313 25.6191 28.2471 25.6191C28.5791 25.6191 28.8688 25.6777 29.1162 25.7949C29.3669 25.9089 29.5785 26.0765 29.751 26.2979C29.9268 26.516 30.0651 26.7796 30.166 27.0889C30.2669 27.3981 30.3369 27.748 30.376 28.1387V28.5879C30.3402 28.9753 30.2702 29.3236 30.166 29.6328C30.0651 29.9421 29.9268 30.2057 29.751 30.4238C29.5785 30.6419 29.3669 30.8096 29.1162 30.9268C28.8656 31.0407 28.5726 31.0977 28.2373 31.0977C27.9281 31.0977 27.6449 31.0309 27.3877 30.8975C27.1338 30.764 26.9141 30.5768 26.7285 30.3359C26.5462 30.0951 26.4046 29.8118 26.3037 29.4863C26.2061 29.1576 26.1572 28.8011 26.1572 28.417ZM27.0654 28.3145V28.417C27.0654 28.6807 27.0915 28.9281 27.1436 29.1592C27.1989 29.3903 27.2835 29.5938 27.3975 29.7695C27.5114 29.9453 27.6562 30.0837 27.832 30.1846C28.0078 30.2822 28.2178 30.3311 28.4619 30.3311C28.7614 30.3311 29.0072 30.2676 29.1992 30.1406C29.3945 30.0137 29.5508 29.846 29.668 29.6377C29.7852 29.4294 29.8763 29.2031 29.9414 28.959V27.7822C29.9023 27.6032 29.8454 27.4307 29.7705 27.2646C29.6989 27.0954 29.6045 26.9456 29.4873 26.8154C29.3734 26.682 29.2318 26.5762 29.0625 26.498C28.8965 26.4199 28.6995 26.3809 28.4717 26.3809C28.2243 26.3809 28.0111 26.4329 27.832 26.5371C27.6562 26.638 27.5114 26.778 27.3975 26.957C27.2835 27.1328 27.1989 27.3379 27.1436 27.5723C27.0915 27.8034 27.0654 28.0508 27.0654 28.3145ZM35.1416 30.0967V27.377C35.1416 27.1686 35.0993 26.988 35.0146 26.835C34.9333 26.6787 34.8096 26.5583 34.6436 26.4736C34.4775 26.389 34.2725 26.3467 34.0283 26.3467C33.8005 26.3467 33.6003 26.3857 33.4277 26.4639C33.2585 26.542 33.125 26.6445 33.0273 26.7715C32.9329 26.8984 32.8857 27.0352 32.8857 27.1816H31.9824C31.9824 26.9928 32.0312 26.8057 32.1289 26.6201C32.2266 26.4346 32.3665 26.2669 32.5488 26.1172C32.7344 25.9642 32.9557 25.8438 33.2129 25.7559C33.4733 25.6647 33.763 25.6191 34.082 25.6191C34.4661 25.6191 34.8047 25.6842 35.0977 25.8145C35.3939 25.9447 35.625 26.1416 35.791 26.4053C35.9603 26.6657 36.0449 26.9928 36.0449 27.3867V29.8477C36.0449 30.0234 36.0596 30.2106 36.0889 30.4092C36.1214 30.6077 36.1686 30.7786 36.2305 30.9219V31H35.2881C35.2425 30.8958 35.2067 30.7575 35.1807 30.585C35.1546 30.4092 35.1416 30.2464 35.1416 30.0967ZM35.2979 27.7969L35.3076 28.4316H34.3945C34.1374 28.4316 33.9079 28.4528 33.7061 28.4951C33.5042 28.5342 33.335 28.5944 33.1982 28.6758C33.0615 28.7572 32.9574 28.8597 32.8857 28.9834C32.8141 29.1038 32.7783 29.2454 32.7783 29.4082C32.7783 29.5742 32.8158 29.7256 32.8906 29.8623C32.9655 29.999 33.0778 30.1081 33.2275 30.1895C33.3805 30.2676 33.5677 30.3066 33.7891 30.3066C34.0658 30.3066 34.3099 30.248 34.5215 30.1309C34.7331 30.0137 34.9007 29.8704 35.0244 29.7012C35.1514 29.5319 35.2197 29.3675 35.2295 29.208L35.6152 29.6426C35.5924 29.7793 35.5306 29.9307 35.4297 30.0967C35.3288 30.2627 35.1937 30.4222 35.0244 30.5752C34.8584 30.7249 34.6598 30.8503 34.4287 30.9512C34.2008 31.0488 33.9437 31.0977 33.6572 31.0977C33.2992 31.0977 32.985 31.0277 32.7148 30.8877C32.4479 30.7477 32.2396 30.5605 32.0898 30.3262C31.9434 30.0885 31.8701 29.8232 31.8701 29.5303C31.8701 29.2471 31.9255 28.998 32.0361 28.7832C32.1468 28.5651 32.3063 28.3844 32.5146 28.2412C32.723 28.0947 32.9736 27.984 33.2666 27.9092C33.5596 27.8343 33.8867 27.7969 34.248 27.7969H35.2979Z" fill="#182748"/>
</svg>
