<svg width="27" height="34" viewBox="0 0 27 34" fill="none" xmlns="http://www.w3.org/2000/svg">
<path d="M3.35938 27.6748H1.55762L1.54785 26.918H3.18359C3.45378 26.918 3.68978 26.8724 3.8916 26.7812C4.09342 26.6901 4.24967 26.5599 4.36035 26.3906C4.47428 26.2181 4.53125 26.013 4.53125 25.7754C4.53125 25.515 4.48079 25.3034 4.37988 25.1406C4.28223 24.9746 4.13086 24.8542 3.92578 24.7793C3.72396 24.7012 3.4668 24.6621 3.1543 24.6621H1.76758V31H0.825195V23.8906H3.1543C3.51888 23.8906 3.8444 23.9281 4.13086 24.0029C4.41732 24.0745 4.65983 24.1885 4.8584 24.3447C5.06022 24.4977 5.21322 24.693 5.31738 24.9307C5.42155 25.1683 5.47363 25.4531 5.47363 25.7852C5.47363 26.0781 5.39876 26.3434 5.24902 26.5811C5.09928 26.8154 4.89095 27.0075 4.62402 27.1572C4.36035 27.307 4.05111 27.403 3.69629 27.4453L3.35938 27.6748ZM3.31543 31H1.18652L1.71875 30.2334H3.31543C3.61491 30.2334 3.86882 30.1813 4.07715 30.0771C4.28874 29.973 4.44987 29.8265 4.56055 29.6377C4.67122 29.4456 4.72656 29.2194 4.72656 28.959C4.72656 28.6953 4.67936 28.4674 4.58496 28.2754C4.49056 28.0833 4.34245 27.9352 4.14062 27.8311C3.9388 27.7269 3.67839 27.6748 3.35938 27.6748H2.0166L2.02637 26.918H3.8623L4.0625 27.1914C4.4043 27.2207 4.69401 27.3184 4.93164 27.4844C5.16927 27.6471 5.34993 27.8555 5.47363 28.1094C5.60059 28.3633 5.66406 28.6432 5.66406 28.9492C5.66406 29.3919 5.56641 29.7663 5.37109 30.0723C5.17904 30.375 4.90723 30.6061 4.55566 30.7656C4.2041 30.9219 3.79069 31 3.31543 31ZM9.11133 31.0977C8.74349 31.0977 8.40983 31.0358 8.11035 30.9121C7.81413 30.7852 7.55859 30.6077 7.34375 30.3799C7.13216 30.152 6.9694 29.8818 6.85547 29.5693C6.74154 29.2568 6.68457 28.915 6.68457 28.5439V28.3389C6.68457 27.9092 6.74805 27.5267 6.875 27.1914C7.00195 26.8529 7.17448 26.5664 7.39258 26.332C7.61068 26.0977 7.85807 25.9202 8.13477 25.7998C8.41146 25.6794 8.69792 25.6191 8.99414 25.6191C9.37174 25.6191 9.69727 25.6842 9.9707 25.8145C10.2474 25.9447 10.4736 26.127 10.6494 26.3613C10.8252 26.5924 10.9554 26.8659 11.04 27.1816C11.1247 27.4941 11.167 27.8359 11.167 28.207V28.6123H7.22168V27.875H10.2637V27.8066C10.2507 27.5723 10.2018 27.3444 10.1172 27.123C10.0358 26.9017 9.9056 26.7194 9.72656 26.5762C9.54753 26.4329 9.30339 26.3613 8.99414 26.3613C8.78906 26.3613 8.60026 26.4053 8.42773 26.4932C8.25521 26.5778 8.1071 26.7048 7.9834 26.874C7.8597 27.0433 7.76367 27.25 7.69531 27.4941C7.62695 27.7383 7.59277 28.0199 7.59277 28.3389V28.5439C7.59277 28.7946 7.62695 29.0306 7.69531 29.252C7.76693 29.4701 7.86947 29.6621 8.00293 29.8281C8.13965 29.9941 8.30404 30.1243 8.49609 30.2188C8.69141 30.3132 8.91276 30.3604 9.16016 30.3604C9.47917 30.3604 9.74935 30.2952 9.9707 30.165C10.1921 30.0348 10.3857 29.8607 10.5518 29.6426L11.0986 30.0771C10.9847 30.2497 10.8398 30.4141 10.6641 30.5703C10.4883 30.7266 10.2718 30.8535 10.0146 30.9512C9.76074 31.0488 9.45964 31.0977 9.11133 31.0977ZM13.125 26.5469V31H12.2217V25.7168H13.1006L13.125 26.5469ZM14.7754 25.6875L14.7705 26.5273C14.6956 26.5111 14.624 26.5013 14.5557 26.498C14.4906 26.4915 14.4157 26.4883 14.3311 26.4883C14.1227 26.4883 13.9388 26.5208 13.7793 26.5859C13.6198 26.651 13.4847 26.7422 13.374 26.8594C13.2633 26.9766 13.1755 27.1165 13.1104 27.2793C13.0485 27.4388 13.0078 27.6146 12.9883 27.8066L12.7344 27.9531C12.7344 27.6341 12.7653 27.3346 12.8271 27.0547C12.8923 26.7747 12.9915 26.5273 13.125 26.3125C13.2585 26.0944 13.4277 25.9251 13.6328 25.8047C13.8411 25.681 14.0885 25.6191 14.375 25.6191C14.4401 25.6191 14.515 25.6273 14.5996 25.6436C14.6842 25.6566 14.7428 25.6712 14.7754 25.6875ZM16.5918 25.7168V31H15.6836V25.7168H16.5918ZM15.6152 24.3154C15.6152 24.1689 15.6592 24.0452 15.7471 23.9443C15.8382 23.8434 15.9717 23.793 16.1475 23.793C16.32 23.793 16.4518 23.8434 16.543 23.9443C16.6374 24.0452 16.6846 24.1689 16.6846 24.3154C16.6846 24.4554 16.6374 24.5758 16.543 24.6768C16.4518 24.7744 16.32 24.8232 16.1475 24.8232C15.9717 24.8232 15.8382 24.7744 15.7471 24.6768C15.6592 24.5758 15.6152 24.4554 15.6152 24.3154ZM20.2539 25.7168V26.4102H17.3975V25.7168H20.2539ZM18.3643 24.4326H19.2676V29.6914C19.2676 29.8704 19.2952 30.0055 19.3506 30.0967C19.4059 30.1878 19.4775 30.248 19.5654 30.2773C19.6533 30.3066 19.7477 30.3213 19.8486 30.3213C19.9235 30.3213 20.0016 30.3148 20.083 30.3018C20.1676 30.2855 20.2311 30.2725 20.2734 30.2627L20.2783 31C20.2067 31.0228 20.1123 31.0439 19.9951 31.0635C19.8812 31.0863 19.7428 31.0977 19.5801 31.0977C19.3587 31.0977 19.1553 31.0537 18.9697 30.9658C18.7842 30.8779 18.6361 30.7314 18.5254 30.5264C18.418 30.318 18.3643 30.0381 18.3643 29.6865V24.4326ZM24.4287 30.0967V27.377C24.4287 27.1686 24.3864 26.988 24.3018 26.835C24.2204 26.6787 24.0967 26.5583 23.9307 26.4736C23.7646 26.389 23.5596 26.3467 23.3154 26.3467C23.0876 26.3467 22.8874 26.3857 22.7148 26.4639C22.5456 26.542 22.4121 26.6445 22.3145 26.7715C22.2201 26.8984 22.1729 27.0352 22.1729 27.1816H21.2695C21.2695 26.9928 21.3184 26.8057 21.416 26.6201C21.5137 26.4346 21.6536 26.2669 21.8359 26.1172C22.0215 25.9642 22.2428 25.8438 22.5 25.7559C22.7604 25.6647 23.0501 25.6191 23.3691 25.6191C23.7533 25.6191 24.0918 25.6842 24.3848 25.8145C24.681 25.9447 24.9121 26.1416 25.0781 26.4053C25.2474 26.6657 25.332 26.9928 25.332 27.3867V29.8477C25.332 30.0234 25.3467 30.2106 25.376 30.4092C25.4085 30.6077 25.4557 30.7786 25.5176 30.9219V31H24.5752C24.5296 30.8958 24.4938 30.7575 24.4678 30.585C24.4417 30.4092 24.4287 30.2464 24.4287 30.0967ZM24.585 27.7969L24.5947 28.4316H23.6816C23.4245 28.4316 23.195 28.4528 22.9932 28.4951C22.7913 28.5342 22.6221 28.5944 22.4854 28.6758C22.3486 28.7572 22.2445 28.8597 22.1729 28.9834C22.1012 29.1038 22.0654 29.2454 22.0654 29.4082C22.0654 29.5742 22.1029 29.7256 22.1777 29.8623C22.2526 29.999 22.3649 30.1081 22.5146 30.1895C22.6676 30.2676 22.8548 30.3066 23.0762 30.3066C23.3529 30.3066 23.597 30.248 23.8086 30.1309C24.0202 30.0137 24.1878 29.8704 24.3115 29.7012C24.4385 29.5319 24.5068 29.3675 24.5166 29.208L24.9023 29.6426C24.8796 29.7793 24.8177 29.9307 24.7168 30.0967C24.6159 30.2627 24.4808 30.4222 24.3115 30.5752C24.1455 30.7249 23.9469 30.8503 23.7158 30.9512C23.488 31.0488 23.2308 31.0977 22.9443 31.0977C22.5863 31.0977 22.2721 31.0277 22.002 30.8877C21.735 30.7477 21.5267 30.5605 21.377 30.3262C21.2305 30.0885 21.1572 29.8232 21.1572 29.5303C21.1572 29.2471 21.2126 28.998 21.3232 28.7832C21.4339 28.5651 21.5934 28.3844 21.8018 28.2412C22.0101 28.0947 22.2607 27.984 22.5537 27.9092C22.8467 27.8343 23.1738 27.7969 23.5352 27.7969H24.585Z" fill="#182748"/>
<path fill-rule="evenodd" clip-rule="evenodd" d="M11.5975 0.58215L10.0909 2.08735C9.96927 2.20905 9.80436 2.2776 9.63229 2.278H7.26183C6.16593 2.278 5.278 3.16593 5.278 4.26183V6.63229C5.27766 6.80477 5.20913 6.97011 5.08735 7.09225L3.58082 8.59746C3.20892 8.96948 3 9.47397 3 10C3 10.526 3.20892 11.0305 3.58082 11.4025L5.08735 12.9091C5.20905 13.0307 5.2776 13.1956 5.278 13.3677V15.7382C5.278 16.8341 6.16593 17.722 7.26183 17.722H9.63229C9.80477 17.7223 9.97011 17.7909 10.0923 17.9126L11.5975 19.4192C11.9695 19.7911 12.474 20 13 20C13.526 20 14.0305 19.7911 14.4025 19.4192L15.9091 17.9126C16.0307 17.7909 16.1956 17.7224 16.3677 17.722H18.7382C19.8341 17.722 20.722 16.8341 20.722 15.7382V13.3677C20.7223 13.1952 20.7909 13.0299 20.9126 12.9077L22.4192 11.4025C22.7911 11.0305 23 10.526 23 10C23 9.47397 22.7911 8.96948 22.4192 8.59746L20.9126 7.09092C20.7909 6.96927 20.7224 6.80436 20.722 6.63229V4.26183C20.722 3.16593 19.8341 2.278 18.7382 2.278H16.3677C16.1952 2.27795 16.0297 2.20938 15.9077 2.08735L14.4025 0.580817C14.0305 0.208919 13.526 0 13 0C12.474 0 11.9695 0.208919 11.5975 0.580817V0.58215ZM14.9998 13.333L9.66696 6.66696H11.0002L16.333 13.333H14.9998ZM9.66696 6.66696V12.9077L11.0002 12.9091V6.66696H9.66696ZM14.9998 13.333H16.333V6.66696L14.9998 6.63229V13.333Z" fill="#D9D9D9"/>
</svg>
