<svg width="39" height="34" viewBox="0 0 39 34" fill="none" xmlns="http://www.w3.org/2000/svg">
<rect x="10" width="18.6667" height="18.6667" rx="8" fill="#C7C7C7"/>
<rect x="12" y="4.66675" width="14.6667" height="2.66667" rx="1.33333" fill="white"/>
<rect x="12" y="8.00009" width="13.037" height="2.66667" rx="1.33333" fill="white"/>
<rect x="12" y="11.3334" width="9.77778" height="2.66667" rx="1.33333" fill="white"/>
<circle cx="25.6666" cy="15.6667" r="4.33333" fill="white"/>
<path d="M22 15.6666C22 13.6499 23.65 11.9999 25.6667 11.9999C27.6833 11.9999 29.3333 13.6499 29.3333 15.6666C29.3333 17.6832 27.6833 19.3332 25.6667 19.3332C23.65 19.3332 22 17.6832 22 15.6666Z" fill="#C7C7C7"/>
<path d="M25.3333 14.3334C25.3333 14.1493 25.1841 14 25 14V14C24.8159 14 24.6666 14.1493 24.6666 14.3334V16.0435C24.6666 16.3942 24.8504 16.7193 25.1509 16.9002L26.6989 17.8322C26.8538 17.9254 27.0548 17.8776 27.151 17.7245V17.7245C27.2508 17.566 27.1996 17.3564 27.0381 17.2615L25.8271 16.5507C25.5212 16.3712 25.3333 16.043 25.3333 15.6883V14.3334Z" fill="white"/>
<path d="M3.44727 28.2119H1.54785V27.4453H3.44727C3.8151 27.4453 4.11296 27.3867 4.34082 27.2695C4.56868 27.1523 4.7347 26.9896 4.83887 26.7812C4.94629 26.5729 5 26.3353 5 26.0684C5 25.8242 4.94629 25.5947 4.83887 25.3799C4.7347 25.165 4.56868 24.9925 4.34082 24.8623C4.11296 24.7288 3.8151 24.6621 3.44727 24.6621H1.76758V31H0.825195V23.8906H3.44727C3.98438 23.8906 4.43848 23.9834 4.80957 24.1689C5.18066 24.3545 5.46224 24.6117 5.6543 24.9404C5.84635 25.266 5.94238 25.6387 5.94238 26.0586C5.94238 26.5143 5.84635 26.9033 5.6543 27.2256C5.46224 27.5479 5.18066 27.7936 4.80957 27.9629C4.43848 28.1289 3.98438 28.2119 3.44727 28.2119ZM9.12109 31.0977C8.75326 31.0977 8.4196 31.0358 8.12012 30.9121C7.82389 30.7852 7.56836 30.6077 7.35352 30.3799C7.14193 30.152 6.97917 29.8818 6.86523 29.5693C6.7513 29.2568 6.69434 28.915 6.69434 28.5439V28.3389C6.69434 27.9092 6.75781 27.5267 6.88477 27.1914C7.01172 26.8529 7.18424 26.5664 7.40234 26.332C7.62044 26.0977 7.86784 25.9202 8.14453 25.7998C8.42122 25.6794 8.70768 25.6191 9.00391 25.6191C9.38151 25.6191 9.70703 25.6842 9.98047 25.8145C10.2572 25.9447 10.4834 26.127 10.6592 26.3613C10.835 26.5924 10.9652 26.8659 11.0498 27.1816C11.1344 27.4941 11.1768 27.8359 11.1768 28.207V28.6123H7.23145V27.875H10.2734V27.8066C10.2604 27.5723 10.2116 27.3444 10.127 27.123C10.0456 26.9017 9.91536 26.7194 9.73633 26.5762C9.55729 26.4329 9.31315 26.3613 9.00391 26.3613C8.79883 26.3613 8.61003 26.4053 8.4375 26.4932C8.26497 26.5778 8.11686 26.7048 7.99316 26.874C7.86947 27.0433 7.77344 27.25 7.70508 27.4941C7.63672 27.7383 7.60254 28.0199 7.60254 28.3389V28.5439C7.60254 28.7946 7.63672 29.0306 7.70508 29.252C7.77669 29.4701 7.87923 29.6621 8.0127 29.8281C8.14941 29.9941 8.3138 30.1243 8.50586 30.2188C8.70117 30.3132 8.92253 30.3604 9.16992 30.3604C9.48893 30.3604 9.75911 30.2952 9.98047 30.165C10.2018 30.0348 10.3955 29.8607 10.5615 29.6426L11.1084 30.0771C10.9945 30.2497 10.8496 30.4141 10.6738 30.5703C10.498 30.7266 10.2816 30.8535 10.0244 30.9512C9.77051 31.0488 9.4694 31.0977 9.12109 31.0977ZM15.3076 29.5986C15.3076 29.4684 15.2783 29.348 15.2197 29.2373C15.1644 29.1234 15.0488 29.0208 14.873 28.9297C14.7005 28.8353 14.4401 28.7539 14.0918 28.6855C13.7988 28.6237 13.5335 28.5505 13.2959 28.4658C13.0615 28.3812 12.8613 28.2786 12.6953 28.1582C12.5326 28.0378 12.4072 27.8962 12.3193 27.7334C12.2314 27.5706 12.1875 27.3802 12.1875 27.1621C12.1875 26.9538 12.2331 26.7568 12.3242 26.5713C12.4186 26.3857 12.5505 26.2214 12.7197 26.0781C12.8923 25.9349 13.099 25.8226 13.3398 25.7412C13.5807 25.6598 13.8493 25.6191 14.1455 25.6191C14.5687 25.6191 14.93 25.694 15.2295 25.8438C15.529 25.9935 15.7585 26.1937 15.918 26.4443C16.0775 26.6917 16.1572 26.9668 16.1572 27.2695H15.2539C15.2539 27.123 15.21 26.9814 15.1221 26.8447C15.0374 26.7048 14.9121 26.5892 14.7461 26.498C14.5833 26.4069 14.3831 26.3613 14.1455 26.3613C13.8949 26.3613 13.6914 26.4004 13.5352 26.4785C13.3822 26.5534 13.2699 26.6494 13.1982 26.7666C13.1299 26.8838 13.0957 27.0075 13.0957 27.1377C13.0957 27.2354 13.112 27.3232 13.1445 27.4014C13.1803 27.4762 13.2422 27.5462 13.3301 27.6113C13.418 27.6732 13.5417 27.7318 13.7012 27.7871C13.8607 27.8424 14.0641 27.8978 14.3115 27.9531C14.7445 28.0508 15.1009 28.168 15.3809 28.3047C15.6608 28.4414 15.8691 28.609 16.0059 28.8076C16.1426 29.0062 16.2109 29.2471 16.2109 29.5303C16.2109 29.7614 16.1621 29.973 16.0645 30.165C15.9701 30.3571 15.8317 30.5231 15.6494 30.6631C15.4704 30.7998 15.2555 30.9072 15.0049 30.9854C14.7575 31.0602 14.4792 31.0977 14.1699 31.0977C13.7044 31.0977 13.3105 31.0146 12.9883 30.8486C12.666 30.6826 12.4219 30.4678 12.2559 30.2041C12.0898 29.9404 12.0068 29.6621 12.0068 29.3691H12.915C12.9281 29.6165 12.9997 29.8135 13.1299 29.96C13.2601 30.1032 13.4196 30.2057 13.6084 30.2676C13.7972 30.3262 13.9844 30.3555 14.1699 30.3555C14.4173 30.3555 14.624 30.3229 14.79 30.2578C14.9593 30.1927 15.0879 30.1032 15.1758 29.9893C15.2637 29.8753 15.3076 29.7451 15.3076 29.5986ZM20.5127 30.0967V27.377C20.5127 27.1686 20.4704 26.988 20.3857 26.835C20.3044 26.6787 20.1807 26.5583 20.0146 26.4736C19.8486 26.389 19.6436 26.3467 19.3994 26.3467C19.1715 26.3467 18.9714 26.3857 18.7988 26.4639C18.6296 26.542 18.4961 26.6445 18.3984 26.7715C18.304 26.8984 18.2568 27.0352 18.2568 27.1816H17.3535C17.3535 26.9928 17.4023 26.8057 17.5 26.6201C17.5977 26.4346 17.7376 26.2669 17.9199 26.1172C18.1055 25.9642 18.3268 25.8438 18.584 25.7559C18.8444 25.6647 19.1341 25.6191 19.4531 25.6191C19.8372 25.6191 20.1758 25.6842 20.4688 25.8145C20.765 25.9447 20.9961 26.1416 21.1621 26.4053C21.3314 26.6657 21.416 26.9928 21.416 27.3867V29.8477C21.416 30.0234 21.4307 30.2106 21.46 30.4092C21.4925 30.6077 21.5397 30.7786 21.6016 30.9219V31H20.6592C20.6136 30.8958 20.5778 30.7575 20.5518 30.585C20.5257 30.4092 20.5127 30.2464 20.5127 30.0967ZM20.6689 27.7969L20.6787 28.4316H19.7656C19.5085 28.4316 19.279 28.4528 19.0771 28.4951C18.8753 28.5342 18.7061 28.5944 18.5693 28.6758C18.4326 28.7572 18.3285 28.8597 18.2568 28.9834C18.1852 29.1038 18.1494 29.2454 18.1494 29.4082C18.1494 29.5742 18.1868 29.7256 18.2617 29.8623C18.3366 29.999 18.4489 30.1081 18.5986 30.1895C18.7516 30.2676 18.9388 30.3066 19.1602 30.3066C19.4368 30.3066 19.681 30.248 19.8926 30.1309C20.1042 30.0137 20.2718 29.8704 20.3955 29.7012C20.5225 29.5319 20.5908 29.3675 20.6006 29.208L20.9863 29.6426C20.9635 29.7793 20.9017 29.9307 20.8008 30.0967C20.6999 30.2627 20.5648 30.4222 20.3955 30.5752C20.2295 30.7249 20.0309 30.8503 19.7998 30.9512C19.5719 31.0488 19.3148 31.0977 19.0283 31.0977C18.6702 31.0977 18.3561 31.0277 18.0859 30.8877C17.819 30.7477 17.6107 30.5605 17.4609 30.3262C17.3145 30.0885 17.2412 29.8232 17.2412 29.5303C17.2412 29.2471 17.2965 28.998 17.4072 28.7832C17.5179 28.5651 17.6774 28.3844 17.8857 28.2412C18.0941 28.0947 18.3447 27.984 18.6377 27.9092C18.9307 27.8343 19.2578 27.7969 19.6191 27.7969H20.6689ZM23.7402 26.8447V31H22.8369V25.7168H23.6914L23.7402 26.8447ZM23.5254 28.1582L23.1494 28.1436C23.1527 27.7822 23.2064 27.4486 23.3105 27.1426C23.4147 26.8333 23.5612 26.5648 23.75 26.3369C23.9388 26.109 24.1634 25.9333 24.4238 25.8096C24.6875 25.6826 24.9788 25.6191 25.2979 25.6191C25.5583 25.6191 25.7926 25.6549 26.001 25.7266C26.2093 25.7949 26.3867 25.9056 26.5332 26.0586C26.6829 26.2116 26.7969 26.4102 26.875 26.6543C26.9531 26.8952 26.9922 27.1898 26.9922 27.5381V31H26.084V27.5283C26.084 27.2516 26.0433 27.0303 25.9619 26.8643C25.8805 26.695 25.7617 26.5729 25.6055 26.498C25.4492 26.4199 25.2572 26.3809 25.0293 26.3809C24.8047 26.3809 24.5996 26.4281 24.4141 26.5225C24.2318 26.6169 24.0739 26.7471 23.9404 26.9131C23.8102 27.0791 23.7077 27.2695 23.6328 27.4844C23.5612 27.696 23.5254 27.9206 23.5254 28.1582ZM31.4795 30.0967V27.377C31.4795 27.1686 31.4372 26.988 31.3525 26.835C31.2712 26.6787 31.1475 26.5583 30.9814 26.4736C30.8154 26.389 30.6104 26.3467 30.3662 26.3467C30.1383 26.3467 29.9382 26.3857 29.7656 26.4639C29.5964 26.542 29.4629 26.6445 29.3652 26.7715C29.2708 26.8984 29.2236 27.0352 29.2236 27.1816H28.3203C28.3203 26.9928 28.3691 26.8057 28.4668 26.6201C28.5645 26.4346 28.7044 26.2669 28.8867 26.1172C29.0723 25.9642 29.2936 25.8438 29.5508 25.7559C29.8112 25.6647 30.1009 25.6191 30.4199 25.6191C30.804 25.6191 31.1426 25.6842 31.4355 25.8145C31.7318 25.9447 31.9629 26.1416 32.1289 26.4053C32.2982 26.6657 32.3828 26.9928 32.3828 27.3867V29.8477C32.3828 30.0234 32.3975 30.2106 32.4268 30.4092C32.4593 30.6077 32.5065 30.7786 32.5684 30.9219V31H31.626C31.5804 30.8958 31.5446 30.7575 31.5186 30.585C31.4925 30.4092 31.4795 30.2464 31.4795 30.0967ZM31.6357 27.7969L31.6455 28.4316H30.7324C30.4753 28.4316 30.2458 28.4528 30.0439 28.4951C29.8421 28.5342 29.6729 28.5944 29.5361 28.6758C29.3994 28.7572 29.2952 28.8597 29.2236 28.9834C29.152 29.1038 29.1162 29.2454 29.1162 29.4082C29.1162 29.5742 29.1536 29.7256 29.2285 29.8623C29.3034 29.999 29.4157 30.1081 29.5654 30.1895C29.7184 30.2676 29.9056 30.3066 30.127 30.3066C30.4036 30.3066 30.6478 30.248 30.8594 30.1309C31.071 30.0137 31.2386 29.8704 31.3623 29.7012C31.4893 29.5319 31.5576 29.3675 31.5674 29.208L31.9531 29.6426C31.9303 29.7793 31.8685 29.9307 31.7676 30.0967C31.6667 30.2627 31.5316 30.4222 31.3623 30.5752C31.1963 30.7249 30.9977 30.8503 30.7666 30.9512C30.5387 31.0488 30.2816 31.0977 29.9951 31.0977C29.637 31.0977 29.3229 31.0277 29.0527 30.8877C28.7858 30.7477 28.5775 30.5605 28.4277 30.3262C28.2812 30.0885 28.208 29.8232 28.208 29.5303C28.208 29.2471 28.2633 28.998 28.374 28.7832C28.4847 28.5651 28.6442 28.3844 28.8525 28.2412C29.0609 28.0947 29.3115 27.984 29.6045 27.9092C29.8975 27.8343 30.2246 27.7969 30.5859 27.7969H31.6357ZM34.707 26.8447V31H33.8037V25.7168H34.6582L34.707 26.8447ZM34.4922 28.1582L34.1162 28.1436C34.1195 27.7822 34.1732 27.4486 34.2773 27.1426C34.3815 26.8333 34.528 26.5648 34.7168 26.3369C34.9056 26.109 35.1302 25.9333 35.3906 25.8096C35.6543 25.6826 35.9456 25.6191 36.2646 25.6191C36.5251 25.6191 36.7594 25.6549 36.9678 25.7266C37.1761 25.7949 37.3535 25.9056 37.5 26.0586C37.6497 26.2116 37.7637 26.4102 37.8418 26.6543C37.9199 26.8952 37.959 27.1898 37.959 27.5381V31H37.0508V27.5283C37.0508 27.2516 37.0101 27.0303 36.9287 26.8643C36.8473 26.695 36.7285 26.5729 36.5723 26.498C36.416 26.4199 36.224 26.3809 35.9961 26.3809C35.7715 26.3809 35.5664 26.4281 35.3809 26.5225C35.1986 26.6169 35.0407 26.7471 34.9072 26.9131C34.777 27.0791 34.6745 27.2695 34.5996 27.4844C34.528 27.696 34.4922 27.9206 34.4922 28.1582Z" fill="#182748"/>
</svg>
