<svg width="293" height="332" viewBox="0 0 293 332" fill="none" xmlns="http://www.w3.org/2000/svg">
<circle cx="147" cy="102" r="82" fill="#F5FFB7"/>
<circle cx="147" cy="102" r="101.5" stroke="#30C0B0"/>
<path d="M24.0015 251.6V266H21.9415V256.13C21.9415 255.97 21.9448 255.797 21.9515 255.61C21.9648 255.417 21.9815 255.223 22.0015 255.03L17.3715 263.58C17.1915 263.933 16.9148 264.11 16.5415 264.11H16.2115C15.8315 264.11 15.5548 263.933 15.3815 263.58L10.6815 255.01C10.7015 255.203 10.7148 255.397 10.7215 255.59C10.7348 255.783 10.7415 255.963 10.7415 256.13V266H8.68148V251.6H10.4315C10.6381 251.6 10.7981 251.62 10.9115 251.66C11.0248 251.693 11.1281 251.803 11.2215 251.99L15.8415 260.36C15.9415 260.553 16.0348 260.753 16.1215 260.96C16.2148 261.16 16.2981 261.367 16.3715 261.58C16.4515 261.367 16.5348 261.157 16.6215 260.95C16.7148 260.737 16.8115 260.533 16.9115 260.34L21.4615 251.99C21.5548 251.803 21.6581 251.693 21.7715 251.66C21.8848 251.62 22.0448 251.6 22.2515 251.6H24.0015ZM32.5885 261.54C31.8218 261.567 31.1752 261.63 30.6485 261.73C30.1218 261.823 29.6952 261.947 29.3685 262.1C29.0418 262.247 28.8052 262.423 28.6585 262.63C28.5185 262.837 28.4485 263.063 28.4485 263.31C28.4485 263.55 28.4852 263.757 28.5585 263.93C28.6385 264.097 28.7452 264.237 28.8785 264.35C29.0185 264.457 29.1785 264.537 29.3585 264.59C29.5452 264.637 29.7485 264.66 29.9685 264.66C30.5285 264.66 31.0085 264.557 31.4085 264.35C31.8152 264.137 32.2085 263.83 32.5885 263.43V261.54ZM26.8885 257.22C28.0418 256.147 29.4152 255.61 31.0085 255.61C31.5952 255.61 32.1152 255.707 32.5685 255.9C33.0285 256.087 33.4118 256.353 33.7185 256.7C34.0318 257.047 34.2685 257.46 34.4285 257.94C34.5952 258.413 34.6785 258.94 34.6785 259.52V266H33.7185C33.5118 266 33.3552 265.97 33.2485 265.91C33.1418 265.843 33.0518 265.713 32.9785 265.52L32.7685 264.69C32.5085 264.923 32.2518 265.133 31.9985 265.32C31.7452 265.5 31.4818 265.653 31.2085 265.78C30.9418 265.907 30.6518 266 30.3385 266.06C30.0318 266.127 29.6918 266.16 29.3185 266.16C28.9052 266.16 28.5185 266.103 28.1585 265.99C27.8052 265.877 27.4985 265.707 27.2385 265.48C26.9785 265.247 26.7718 264.96 26.6185 264.62C26.4718 264.28 26.3985 263.88 26.3985 263.42C26.3985 263.027 26.5018 262.643 26.7085 262.27C26.9218 261.897 27.2685 261.563 27.7485 261.27C28.2352 260.97 28.8718 260.723 29.6585 260.53C30.4518 260.337 31.4285 260.227 32.5885 260.2V259.52C32.5885 258.787 32.4318 258.24 32.1185 257.88C31.8052 257.52 31.3452 257.34 30.7385 257.34C30.3252 257.34 29.9785 257.393 29.6985 257.5C29.4185 257.6 29.1752 257.71 28.9685 257.83C28.7618 257.95 28.5785 258.063 28.4185 258.17C28.2585 258.27 28.0885 258.32 27.9085 258.32C27.7618 258.32 27.6352 258.283 27.5285 258.21C27.4285 258.13 27.3452 258.033 27.2785 257.92L26.8885 257.22ZM43.0471 261.54C42.2804 261.567 41.6338 261.63 41.1071 261.73C40.5804 261.823 40.1538 261.947 39.8271 262.1C39.5004 262.247 39.2638 262.423 39.1171 262.63C38.9771 262.837 38.9071 263.063 38.9071 263.31C38.9071 263.55 38.9438 263.757 39.0171 263.93C39.0971 264.097 39.2038 264.237 39.3371 264.35C39.4771 264.457 39.6371 264.537 39.8171 264.59C40.0038 264.637 40.2071 264.66 40.4271 264.66C40.9871 264.66 41.4671 264.557 41.8671 264.35C42.2738 264.137 42.6671 263.83 43.0471 263.43V261.54ZM37.3471 257.22C38.5004 256.147 39.8738 255.61 41.4671 255.61C42.0538 255.61 42.5738 255.707 43.0271 255.9C43.4871 256.087 43.8704 256.353 44.1771 256.7C44.4904 257.047 44.7271 257.46 44.8871 257.94C45.0538 258.413 45.1371 258.94 45.1371 259.52V266H44.1771C43.9704 266 43.8138 265.97 43.7071 265.91C43.6004 265.843 43.5104 265.713 43.4371 265.52L43.2271 264.69C42.9671 264.923 42.7104 265.133 42.4571 265.32C42.2038 265.5 41.9404 265.653 41.6671 265.78C41.4004 265.907 41.1104 266 40.7971 266.06C40.4904 266.127 40.1504 266.16 39.7771 266.16C39.3638 266.16 38.9771 266.103 38.6171 265.99C38.2638 265.877 37.9571 265.707 37.6971 265.48C37.4371 265.247 37.2304 264.96 37.0771 264.62C36.9304 264.28 36.8571 263.88 36.8571 263.42C36.8571 263.027 36.9604 262.643 37.1671 262.27C37.3804 261.897 37.7271 261.563 38.2071 261.27C38.6938 260.97 39.3304 260.723 40.1171 260.53C40.9104 260.337 41.8871 260.227 43.0471 260.2V259.52C43.0471 258.787 42.8904 258.24 42.5771 257.88C42.2638 257.52 41.8038 257.34 41.1971 257.34C40.7838 257.34 40.4371 257.393 40.1571 257.5C39.8771 257.6 39.6338 257.71 39.4271 257.83C39.2204 257.95 39.0371 258.063 38.8771 258.17C38.7171 258.27 38.5471 258.32 38.3671 258.32C38.2204 258.32 38.0938 258.283 37.9871 258.21C37.8871 258.13 37.8038 258.033 37.7371 257.92L37.3471 257.22ZM48.5699 266V257.51L47.5699 257.37C47.4033 257.337 47.2666 257.277 47.1599 257.19C47.0599 257.103 47.0099 256.98 47.0099 256.82V255.94H48.5699V255.08C48.5699 254.5 48.6533 253.98 48.8199 253.52C48.9933 253.06 49.2366 252.67 49.5499 252.35C49.8699 252.03 50.2566 251.787 50.7099 251.62C51.1633 251.447 51.6733 251.36 52.2399 251.36C52.4733 251.36 52.6933 251.377 52.8999 251.41C53.1133 251.443 53.3199 251.493 53.5199 251.56L53.4799 252.64C53.4666 252.82 53.3766 252.927 53.2099 252.96C53.0499 252.993 52.8466 253.01 52.5999 253.01C52.2999 253.01 52.0299 253.047 51.7899 253.12C51.5499 253.187 51.3433 253.303 51.1699 253.47C51.0033 253.637 50.8733 253.857 50.7799 254.13C50.6933 254.403 50.6499 254.743 50.6499 255.15V255.94H53.4399V257.49H50.7199V266H48.5699ZM61.3391 265.99C61.1458 265.99 60.9691 265.957 60.8091 265.89C60.6491 265.817 60.5091 265.72 60.3891 265.6C60.2758 265.473 60.1858 265.327 60.1191 265.16C60.0591 264.993 60.0291 264.81 60.0291 264.61C60.0291 264.437 60.0591 264.273 60.1191 264.12C60.1858 263.967 60.2758 263.833 60.3891 263.72C60.5091 263.607 60.6491 263.52 60.8091 263.46C60.9758 263.393 61.1558 263.36 61.3491 263.36C61.5758 263.36 61.7758 263.403 61.9491 263.49C62.1225 263.57 62.2658 263.683 62.3791 263.83C62.4991 263.97 62.5858 264.137 62.6391 264.33C62.6991 264.517 62.7291 264.717 62.7291 264.93C62.7291 265.237 62.6825 265.56 62.5891 265.9C62.5025 266.24 62.3691 266.577 62.1891 266.91C62.0158 267.25 61.7991 267.58 61.5391 267.9C61.2858 268.22 60.9958 268.513 60.6691 268.78L60.2991 268.44C60.2458 268.387 60.2058 268.337 60.1791 268.29C60.1591 268.243 60.1491 268.183 60.1491 268.11C60.1491 267.997 60.2058 267.89 60.3191 267.79C60.3858 267.717 60.4725 267.62 60.5791 267.5C60.6858 267.38 60.7925 267.243 60.8991 267.09C61.0058 266.937 61.1025 266.767 61.1891 266.58C61.2825 266.393 61.3491 266.197 61.3891 265.99H61.3391ZM73.509 257.76H74.179C74.4323 257.76 74.639 257.727 74.799 257.66C74.959 257.587 75.1023 257.473 75.229 257.32L79.589 252.12C79.7423 251.927 79.899 251.793 80.059 251.72C80.2257 251.64 80.4323 251.6 80.679 251.6H82.679L77.529 257.68C77.389 257.853 77.2523 258 77.119 258.12C76.9923 258.233 76.8523 258.327 76.699 258.4C76.899 258.473 77.079 258.577 77.239 258.71C77.399 258.837 77.5557 259.007 77.709 259.22L83.049 266H81.009C80.8623 266 80.7357 265.99 80.629 265.97C80.529 265.95 80.439 265.92 80.359 265.88C80.2857 265.84 80.219 265.79 80.159 265.73C80.1057 265.67 80.0557 265.603 80.009 265.53L75.509 260.03C75.4423 259.943 75.3757 259.87 75.309 259.81C75.2423 259.75 75.1623 259.7 75.069 259.66C74.9823 259.62 74.8823 259.593 74.769 259.58C74.6557 259.56 74.5223 259.55 74.369 259.55H73.509V266H71.169V251.6H73.509V257.76ZM90.6129 259.75C90.6129 259.39 90.5596 259.057 90.4529 258.75C90.3529 258.437 90.2029 258.167 90.0029 257.94C89.8029 257.707 89.5529 257.527 89.2529 257.4C88.9596 257.267 88.6196 257.2 88.2329 257.2C87.4529 257.2 86.8396 257.423 86.3929 257.87C85.9462 258.317 85.6629 258.943 85.5429 259.75H90.6129ZM85.4829 261.07C85.5096 261.65 85.5996 262.153 85.7529 262.58C85.9062 263 86.1096 263.35 86.3629 263.63C86.6229 263.91 86.9296 264.12 87.2829 264.26C87.6429 264.393 88.0429 264.46 88.4829 264.46C88.9029 264.46 89.2662 264.413 89.5729 264.32C89.8796 264.22 90.1462 264.113 90.3729 264C90.5996 263.88 90.7929 263.773 90.9529 263.68C91.1129 263.58 91.2596 263.53 91.3929 263.53C91.5662 263.53 91.6996 263.597 91.7929 263.73L92.4029 264.52C92.1496 264.82 91.8629 265.073 91.5429 265.28C91.2229 265.487 90.8829 265.657 90.5229 265.79C90.1629 265.917 89.7929 266.007 89.4129 266.06C89.0329 266.12 88.6629 266.15 88.3029 266.15C87.5962 266.15 86.9396 266.033 86.3329 265.8C85.7329 265.56 85.2096 265.21 84.7629 264.75C84.3229 264.29 83.9762 263.72 83.7229 263.04C83.4762 262.36 83.3529 261.577 83.3529 260.69C83.3529 259.983 83.4629 259.323 83.6829 258.71C83.9096 258.097 84.2296 257.563 84.6429 257.11C85.0629 256.657 85.5696 256.3 86.1629 256.04C86.7629 255.773 87.4396 255.64 88.1929 255.64C88.8196 255.64 89.3996 255.743 89.9329 255.95C90.4662 256.15 90.9262 256.447 91.3129 256.84C91.6996 257.233 91.9996 257.717 92.2129 258.29C92.4329 258.857 92.5429 259.503 92.5429 260.23C92.5429 260.563 92.5062 260.787 92.4329 260.9C92.3596 261.013 92.2262 261.07 92.0329 261.07H85.4829ZM96.9779 257.69C97.2979 257.043 97.6846 256.537 98.1379 256.17C98.5912 255.797 99.1346 255.61 99.7679 255.61C99.9879 255.61 100.195 255.637 100.388 255.69C100.581 255.737 100.755 255.81 100.908 255.91L100.758 257.53C100.731 257.643 100.688 257.723 100.628 257.77C100.575 257.81 100.501 257.83 100.408 257.83C100.308 257.83 100.165 257.813 99.9779 257.78C99.7912 257.74 99.5946 257.72 99.3879 257.72C99.0879 257.72 98.8212 257.763 98.5879 257.85C98.3612 257.937 98.1546 258.063 97.9679 258.23C97.7879 258.397 97.6279 258.6 97.4879 258.84C97.3479 259.08 97.2179 259.353 97.0979 259.66V266H94.9479V255.8H96.1979C96.4246 255.8 96.5812 255.843 96.6679 255.93C96.7546 256.01 96.8146 256.153 96.8479 256.36L96.9779 257.69ZM108.024 261.54C107.258 261.567 106.611 261.63 106.084 261.73C105.558 261.823 105.131 261.947 104.804 262.1C104.478 262.247 104.241 262.423 104.094 262.63C103.954 262.837 103.884 263.063 103.884 263.31C103.884 263.55 103.921 263.757 103.994 263.93C104.074 264.097 104.181 264.237 104.314 264.35C104.454 264.457 104.614 264.537 104.794 264.59C104.981 264.637 105.184 264.66 105.404 264.66C105.964 264.66 106.444 264.557 106.844 264.35C107.251 264.137 107.644 263.83 108.024 263.43V261.54ZM102.324 257.22C103.478 256.147 104.851 255.61 106.444 255.61C107.031 255.61 107.551 255.707 108.004 255.9C108.464 256.087 108.848 256.353 109.154 256.7C109.468 257.047 109.704 257.46 109.864 257.94C110.031 258.413 110.114 258.94 110.114 259.52V266H109.154C108.948 266 108.791 265.97 108.684 265.91C108.578 265.843 108.488 265.713 108.414 265.52L108.204 264.69C107.944 264.923 107.688 265.133 107.434 265.32C107.181 265.5 106.918 265.653 106.644 265.78C106.378 265.907 106.088 266 105.774 266.06C105.468 266.127 105.128 266.16 104.754 266.16C104.341 266.16 103.954 266.103 103.594 265.99C103.241 265.877 102.934 265.707 102.674 265.48C102.414 265.247 102.208 264.96 102.054 264.62C101.908 264.28 101.834 263.88 101.834 263.42C101.834 263.027 101.938 262.643 102.144 262.27C102.358 261.897 102.704 261.563 103.184 261.27C103.671 260.97 104.308 260.723 105.094 260.53C105.888 260.337 106.864 260.227 108.024 260.2V259.52C108.024 258.787 107.868 258.24 107.554 257.88C107.241 257.52 106.781 257.34 106.174 257.34C105.761 257.34 105.414 257.393 105.134 257.5C104.854 257.6 104.611 257.71 104.404 257.83C104.198 257.95 104.014 258.063 103.854 258.17C103.694 258.27 103.524 258.32 103.344 258.32C103.198 258.32 103.071 258.283 102.964 258.21C102.864 258.13 102.781 258.033 102.714 257.92L102.324 257.22ZM115.043 257.15C115.263 256.923 115.49 256.72 115.723 256.54C115.963 256.353 116.216 256.193 116.483 256.06C116.75 255.927 117.033 255.823 117.333 255.75C117.633 255.677 117.96 255.64 118.313 255.64C118.873 255.64 119.363 255.733 119.783 255.92C120.21 256.107 120.566 256.37 120.853 256.71C121.146 257.05 121.366 257.46 121.513 257.94C121.66 258.413 121.733 258.937 121.733 259.51V266H119.593V259.51C119.593 258.823 119.433 258.29 119.113 257.91C118.8 257.53 118.32 257.34 117.673 257.34C117.193 257.34 116.746 257.45 116.333 257.67C115.926 257.89 115.543 258.19 115.183 258.57V266H113.033V255.8H114.333C114.626 255.8 114.813 255.937 114.893 256.21L115.043 257.15ZM126.884 255.8V266.53C126.884 266.957 126.827 267.357 126.714 267.73C126.601 268.11 126.421 268.44 126.174 268.72C125.927 269 125.607 269.22 125.214 269.38C124.827 269.54 124.357 269.62 123.804 269.62C123.571 269.62 123.361 269.603 123.174 269.57C122.987 269.537 122.797 269.49 122.604 269.43L122.684 268.26C122.704 268.127 122.761 268.05 122.854 268.03C122.941 268.01 123.111 268 123.364 268C123.871 268 124.224 267.887 124.424 267.66C124.631 267.44 124.734 267.063 124.734 266.53V255.8H126.884ZM127.234 252.72C127.234 252.913 127.194 253.097 127.114 253.27C127.041 253.443 126.937 253.597 126.804 253.73C126.671 253.857 126.517 253.96 126.344 254.04C126.171 254.113 125.984 254.15 125.784 254.15C125.591 254.15 125.407 254.113 125.234 254.04C125.067 253.96 124.917 253.857 124.784 253.73C124.657 253.597 124.557 253.443 124.484 253.27C124.411 253.097 124.374 252.913 124.374 252.72C124.374 252.52 124.411 252.333 124.484 252.16C124.557 251.987 124.657 251.837 124.784 251.71C124.917 251.577 125.067 251.473 125.234 251.4C125.407 251.32 125.591 251.28 125.784 251.28C125.984 251.28 126.171 251.32 126.344 251.4C126.517 251.473 126.671 251.577 126.804 251.71C126.937 251.837 127.041 251.987 127.114 252.16C127.194 252.333 127.234 252.52 127.234 252.72ZM135.435 261.54C134.669 261.567 134.022 261.63 133.495 261.73C132.969 261.823 132.542 261.947 132.215 262.1C131.889 262.247 131.652 262.423 131.505 262.63C131.365 262.837 131.295 263.063 131.295 263.31C131.295 263.55 131.332 263.757 131.405 263.93C131.485 264.097 131.592 264.237 131.725 264.35C131.865 264.457 132.025 264.537 132.205 264.59C132.392 264.637 132.595 264.66 132.815 264.66C133.375 264.66 133.855 264.557 134.255 264.35C134.662 264.137 135.055 263.83 135.435 263.43V261.54ZM129.735 257.22C130.889 256.147 132.262 255.61 133.855 255.61C134.442 255.61 134.962 255.707 135.415 255.9C135.875 256.087 136.259 256.353 136.565 256.7C136.879 257.047 137.115 257.46 137.275 257.94C137.442 258.413 137.525 258.94 137.525 259.52V266H136.565C136.359 266 136.202 265.97 136.095 265.91C135.989 265.843 135.899 265.713 135.825 265.52L135.615 264.69C135.355 264.923 135.099 265.133 134.845 265.32C134.592 265.5 134.329 265.653 134.055 265.78C133.789 265.907 133.499 266 133.185 266.06C132.879 266.127 132.539 266.16 132.165 266.16C131.752 266.16 131.365 266.103 131.005 265.99C130.652 265.877 130.345 265.707 130.085 265.48C129.825 265.247 129.619 264.96 129.465 264.62C129.319 264.28 129.245 263.88 129.245 263.42C129.245 263.027 129.349 262.643 129.555 262.27C129.769 261.897 130.115 261.563 130.595 261.27C131.082 260.97 131.719 260.723 132.505 260.53C133.299 260.337 134.275 260.227 135.435 260.2V259.52C135.435 258.787 135.279 258.24 134.965 257.88C134.652 257.52 134.192 257.34 133.585 257.34C133.172 257.34 132.825 257.393 132.545 257.5C132.265 257.6 132.022 257.71 131.815 257.83C131.609 257.95 131.425 258.063 131.265 258.17C131.105 258.27 130.935 258.32 130.755 258.32C130.609 258.32 130.482 258.283 130.375 258.21C130.275 258.13 130.192 258.033 130.125 257.92L129.735 257.22ZM142.454 257.15C142.674 256.923 142.901 256.72 143.134 256.54C143.374 256.353 143.627 256.193 143.894 256.06C144.161 255.927 144.444 255.823 144.744 255.75C145.044 255.677 145.371 255.64 145.724 255.64C146.284 255.64 146.774 255.733 147.194 255.92C147.621 256.107 147.977 256.37 148.264 256.71C148.557 257.05 148.777 257.46 148.924 257.94C149.071 258.413 149.144 258.937 149.144 259.51V266H147.004V259.51C147.004 258.823 146.844 258.29 146.524 257.91C146.211 257.53 145.731 257.34 145.084 257.34C144.604 257.34 144.157 257.45 143.744 257.67C143.337 257.89 142.954 258.19 142.594 258.57V266H140.444V255.8H141.744C142.037 255.8 142.224 255.937 142.304 256.21L142.454 257.15ZM155.695 260.81C156.362 260.81 156.862 260.64 157.195 260.3C157.528 259.96 157.695 259.517 157.695 258.97C157.695 258.41 157.528 257.967 157.195 257.64C156.862 257.313 156.362 257.15 155.695 257.15C155.035 257.15 154.535 257.313 154.195 257.64C153.862 257.967 153.695 258.41 153.695 258.97C153.695 259.237 153.738 259.483 153.825 259.71C153.912 259.937 154.038 260.133 154.205 260.3C154.372 260.46 154.578 260.587 154.825 260.68C155.078 260.767 155.368 260.81 155.695 260.81ZM158.685 266.5C158.685 266.273 158.618 266.093 158.485 265.96C158.358 265.82 158.185 265.713 157.965 265.64C157.745 265.56 157.488 265.503 157.195 265.47C156.902 265.43 156.588 265.403 156.255 265.39C155.928 265.37 155.592 265.353 155.245 265.34C154.905 265.32 154.575 265.287 154.255 265.24C153.935 265.407 153.672 265.607 153.465 265.84C153.265 266.073 153.165 266.343 153.165 266.65C153.165 266.85 153.215 267.037 153.315 267.21C153.422 267.383 153.582 267.533 153.795 267.66C154.015 267.787 154.292 267.887 154.625 267.96C154.965 268.033 155.372 268.07 155.845 268.07C156.792 268.07 157.502 267.923 157.975 267.63C158.448 267.337 158.685 266.96 158.685 266.5ZM160.845 256.17V256.97C160.845 257.237 160.685 257.4 160.365 257.46L159.345 257.63C159.518 258.017 159.605 258.447 159.605 258.92C159.605 259.42 159.505 259.873 159.305 260.28C159.112 260.687 158.842 261.033 158.495 261.32C158.148 261.607 157.735 261.827 157.255 261.98C156.775 262.133 156.255 262.21 155.695 262.21C155.482 262.21 155.272 262.2 155.065 262.18C154.865 262.153 154.668 262.12 154.475 262.08C154.282 262.193 154.138 262.313 154.045 262.44C153.952 262.567 153.905 262.697 153.905 262.83C153.905 263.05 154.002 263.213 154.195 263.32C154.388 263.427 154.642 263.503 154.955 263.55C155.275 263.597 155.638 263.627 156.045 263.64C156.452 263.653 156.865 263.677 157.285 263.71C157.705 263.743 158.118 263.8 158.525 263.88C158.932 263.953 159.292 264.08 159.605 264.26C159.925 264.433 160.182 264.67 160.375 264.97C160.568 265.27 160.665 265.66 160.665 266.14C160.665 266.58 160.555 267.01 160.335 267.43C160.115 267.85 159.795 268.223 159.375 268.55C158.962 268.877 158.455 269.137 157.855 269.33C157.255 269.53 156.572 269.63 155.805 269.63C155.045 269.63 154.382 269.557 153.815 269.41C153.255 269.263 152.785 269.063 152.405 268.81C152.032 268.563 151.752 268.277 151.565 267.95C151.385 267.623 151.295 267.283 151.295 266.93C151.295 266.45 151.445 266.04 151.745 265.7C152.052 265.36 152.465 265.093 152.985 264.9C152.705 264.767 152.478 264.583 152.305 264.35C152.138 264.117 152.055 263.81 152.055 263.43C152.055 263.13 152.165 262.817 152.385 262.49C152.605 262.163 152.935 261.887 153.375 261.66C152.868 261.38 152.468 261.01 152.175 260.55C151.882 260.083 151.735 259.54 151.735 258.92C151.735 258.413 151.832 257.957 152.025 257.55C152.225 257.143 152.502 256.797 152.855 256.51C153.208 256.223 153.625 256.003 154.105 255.85C154.592 255.697 155.122 255.62 155.695 255.62C156.575 255.62 157.342 255.803 157.995 256.17H160.845ZM173.964 264.15C174.49 264.15 174.934 264.09 175.294 263.97C175.66 263.843 175.957 263.673 176.184 263.46C176.417 263.247 176.584 262.997 176.684 262.71C176.79 262.417 176.844 262.103 176.844 261.77C176.844 261.09 176.61 260.557 176.144 260.17C175.684 259.777 174.954 259.58 173.954 259.58H171.064V264.15H173.964ZM171.064 253.43V257.93H173.404C174.404 257.93 175.15 257.737 175.644 257.35C176.137 256.963 176.384 256.407 176.384 255.68C176.384 254.887 176.15 254.313 175.684 253.96C175.224 253.607 174.5 253.43 173.514 253.43H171.064ZM173.514 251.6C174.434 251.6 175.22 251.69 175.874 251.87C176.527 252.043 177.064 252.293 177.484 252.62C177.904 252.947 178.21 253.347 178.404 253.82C178.604 254.287 178.704 254.813 178.704 255.4C178.704 255.74 178.65 256.07 178.544 256.39C178.444 256.703 178.284 257 178.064 257.28C177.85 257.553 177.58 257.8 177.254 258.02C176.927 258.24 176.54 258.423 176.094 258.57C178.134 259.003 179.154 260.087 179.154 261.82C179.154 262.433 179.037 262.997 178.804 263.51C178.577 264.017 178.244 264.457 177.804 264.83C177.37 265.197 176.834 265.483 176.194 265.69C175.554 265.897 174.824 266 174.004 266H168.724V251.6H173.514ZM188.324 259.75C188.324 259.39 188.27 259.057 188.164 258.75C188.064 258.437 187.914 258.167 187.714 257.94C187.514 257.707 187.264 257.527 186.964 257.4C186.67 257.267 186.33 257.2 185.944 257.2C185.164 257.2 184.55 257.423 184.104 257.87C183.657 258.317 183.374 258.943 183.254 259.75H188.324ZM183.194 261.07C183.22 261.65 183.31 262.153 183.464 262.58C183.617 263 183.82 263.35 184.074 263.63C184.334 263.91 184.64 264.12 184.994 264.26C185.354 264.393 185.754 264.46 186.194 264.46C186.614 264.46 186.977 264.413 187.284 264.32C187.59 264.22 187.857 264.113 188.084 264C188.31 263.88 188.504 263.773 188.664 263.68C188.824 263.58 188.97 263.53 189.104 263.53C189.277 263.53 189.41 263.597 189.504 263.73L190.114 264.52C189.86 264.82 189.574 265.073 189.254 265.28C188.934 265.487 188.594 265.657 188.234 265.79C187.874 265.917 187.504 266.007 187.124 266.06C186.744 266.12 186.374 266.15 186.014 266.15C185.307 266.15 184.65 266.033 184.044 265.8C183.444 265.56 182.92 265.21 182.474 264.75C182.034 264.29 181.687 263.72 181.434 263.04C181.187 262.36 181.064 261.577 181.064 260.69C181.064 259.983 181.174 259.323 181.394 258.71C181.62 258.097 181.94 257.563 182.354 257.11C182.774 256.657 183.28 256.3 183.874 256.04C184.474 255.773 185.15 255.64 185.904 255.64C186.53 255.64 187.11 255.743 187.644 255.95C188.177 256.15 188.637 256.447 189.024 256.84C189.41 257.233 189.71 257.717 189.924 258.29C190.144 258.857 190.254 259.503 190.254 260.23C190.254 260.563 190.217 260.787 190.144 260.9C190.07 261.013 189.937 261.07 189.744 261.07H183.194ZM194.849 251.2V266H192.699V251.2H194.849ZM203.353 261.54C202.586 261.567 201.939 261.63 201.413 261.73C200.886 261.823 200.459 261.947 200.133 262.1C199.806 262.247 199.569 262.423 199.423 262.63C199.283 262.837 199.213 263.063 199.213 263.31C199.213 263.55 199.249 263.757 199.323 263.93C199.403 264.097 199.509 264.237 199.643 264.35C199.783 264.457 199.943 264.537 200.123 264.59C200.309 264.637 200.513 264.66 200.733 264.66C201.293 264.66 201.773 264.557 202.173 264.35C202.579 264.137 202.973 263.83 203.353 263.43V261.54ZM197.653 257.22C198.806 256.147 200.179 255.61 201.773 255.61C202.359 255.61 202.879 255.707 203.333 255.9C203.793 256.087 204.176 256.353 204.483 256.7C204.796 257.047 205.033 257.46 205.193 257.94C205.359 258.413 205.443 258.94 205.443 259.52V266H204.483C204.276 266 204.119 265.97 204.013 265.91C203.906 265.843 203.816 265.713 203.743 265.52L203.533 264.69C203.273 264.923 203.016 265.133 202.763 265.32C202.509 265.5 202.246 265.653 201.973 265.78C201.706 265.907 201.416 266 201.103 266.06C200.796 266.127 200.456 266.16 200.083 266.16C199.669 266.16 199.283 266.103 198.923 265.99C198.569 265.877 198.263 265.707 198.003 265.48C197.743 265.247 197.536 264.96 197.383 264.62C197.236 264.28 197.163 263.88 197.163 263.42C197.163 263.027 197.266 262.643 197.473 262.27C197.686 261.897 198.033 261.563 198.513 261.27C198.999 260.97 199.636 260.723 200.423 260.53C201.216 260.337 202.193 260.227 203.353 260.2V259.52C203.353 258.787 203.196 258.24 202.883 257.88C202.569 257.52 202.109 257.34 201.503 257.34C201.089 257.34 200.743 257.393 200.463 257.5C200.183 257.6 199.939 257.71 199.733 257.83C199.526 257.95 199.343 258.063 199.183 258.17C199.023 258.27 198.853 258.32 198.673 258.32C198.526 258.32 198.399 258.283 198.293 258.21C198.193 258.13 198.109 258.033 198.043 257.92L197.653 257.22ZM210.371 257.15C210.591 256.923 210.818 256.72 211.051 256.54C211.291 256.353 211.544 256.193 211.811 256.06C212.078 255.927 212.361 255.823 212.661 255.75C212.961 255.677 213.288 255.64 213.641 255.64C214.201 255.64 214.691 255.733 215.111 255.92C215.538 256.107 215.894 256.37 216.181 256.71C216.474 257.05 216.694 257.46 216.841 257.94C216.988 258.413 217.061 258.937 217.061 259.51V266H214.921V259.51C214.921 258.823 214.761 258.29 214.441 257.91C214.128 257.53 213.648 257.34 213.001 257.34C212.521 257.34 212.074 257.45 211.661 257.67C211.254 257.89 210.871 258.19 210.511 258.57V266H208.361V255.8H209.661C209.954 255.8 210.141 255.937 210.221 256.21L210.371 257.15ZM222.212 255.8V266.53C222.212 266.957 222.155 267.357 222.042 267.73C221.929 268.11 221.749 268.44 221.502 268.72C221.255 269 220.935 269.22 220.542 269.38C220.155 269.54 219.685 269.62 219.132 269.62C218.899 269.62 218.689 269.603 218.502 269.57C218.315 269.537 218.125 269.49 217.932 269.43L218.012 268.26C218.032 268.127 218.089 268.05 218.182 268.03C218.269 268.01 218.439 268 218.692 268C219.199 268 219.552 267.887 219.752 267.66C219.959 267.44 220.062 267.063 220.062 266.53V255.8H222.212ZM222.562 252.72C222.562 252.913 222.522 253.097 222.442 253.27C222.369 253.443 222.265 253.597 222.132 253.73C221.999 253.857 221.845 253.96 221.672 254.04C221.499 254.113 221.312 254.15 221.112 254.15C220.919 254.15 220.735 254.113 220.562 254.04C220.395 253.96 220.245 253.857 220.112 253.73C219.985 253.597 219.885 253.443 219.812 253.27C219.739 253.097 219.702 252.913 219.702 252.72C219.702 252.52 219.739 252.333 219.812 252.16C219.885 251.987 219.985 251.837 220.112 251.71C220.245 251.577 220.395 251.473 220.562 251.4C220.735 251.32 220.919 251.28 221.112 251.28C221.312 251.28 221.499 251.32 221.672 251.4C221.845 251.473 221.999 251.577 222.132 251.71C222.265 251.837 222.369 251.987 222.442 252.16C222.522 252.333 222.562 252.52 222.562 252.72ZM230.764 261.54C229.997 261.567 229.35 261.63 228.824 261.73C228.297 261.823 227.87 261.947 227.544 262.1C227.217 262.247 226.98 262.423 226.834 262.63C226.694 262.837 226.624 263.063 226.624 263.31C226.624 263.55 226.66 263.757 226.734 263.93C226.814 264.097 226.92 264.237 227.054 264.35C227.194 264.457 227.354 264.537 227.534 264.59C227.72 264.637 227.924 264.66 228.144 264.66C228.704 264.66 229.184 264.557 229.584 264.35C229.99 264.137 230.384 263.83 230.764 263.43V261.54ZM225.064 257.22C226.217 256.147 227.59 255.61 229.184 255.61C229.77 255.61 230.29 255.707 230.744 255.9C231.204 256.087 231.587 256.353 231.894 256.7C232.207 257.047 232.444 257.46 232.604 257.94C232.77 258.413 232.854 258.94 232.854 259.52V266H231.894C231.687 266 231.53 265.97 231.424 265.91C231.317 265.843 231.227 265.713 231.154 265.52L230.944 264.69C230.684 264.923 230.427 265.133 230.174 265.32C229.92 265.5 229.657 265.653 229.384 265.78C229.117 265.907 228.827 266 228.514 266.06C228.207 266.127 227.867 266.16 227.494 266.16C227.08 266.16 226.694 266.103 226.334 265.99C225.98 265.877 225.674 265.707 225.414 265.48C225.154 265.247 224.947 264.96 224.794 264.62C224.647 264.28 224.574 263.88 224.574 263.42C224.574 263.027 224.677 262.643 224.884 262.27C225.097 261.897 225.444 261.563 225.924 261.27C226.41 260.97 227.047 260.723 227.834 260.53C228.627 260.337 229.604 260.227 230.764 260.2V259.52C230.764 258.787 230.607 258.24 230.294 257.88C229.98 257.52 229.52 257.34 228.914 257.34C228.5 257.34 228.154 257.393 227.874 257.5C227.594 257.6 227.35 257.71 227.144 257.83C226.937 257.95 226.754 258.063 226.594 258.17C226.434 258.27 226.264 258.32 226.084 258.32C225.937 258.32 225.81 258.283 225.704 258.21C225.604 258.13 225.52 258.033 225.454 257.92L225.064 257.22ZM248.509 260.6L246.529 255.34C246.369 254.933 246.205 254.417 246.039 253.79C245.965 254.103 245.885 254.393 245.799 254.66C245.712 254.92 245.632 255.15 245.559 255.35L243.579 260.6H248.509ZM252.939 266H251.129C250.922 266 250.755 265.95 250.629 265.85C250.502 265.743 250.405 265.613 250.339 265.46L249.139 262.28H242.939L241.739 265.46C241.685 265.593 241.592 265.717 241.459 265.83C241.325 265.943 241.159 266 240.959 266H239.149L244.859 251.6H247.229L252.939 266ZM256.59 257.15C256.81 256.923 257.037 256.72 257.27 256.54C257.51 256.353 257.763 256.193 258.03 256.06C258.297 255.927 258.58 255.823 258.88 255.75C259.18 255.677 259.507 255.64 259.86 255.64C260.42 255.64 260.91 255.733 261.33 255.92C261.757 256.107 262.113 256.37 262.4 256.71C262.693 257.05 262.913 257.46 263.06 257.94C263.207 258.413 263.28 258.937 263.28 259.51V266H261.14V259.51C261.14 258.823 260.98 258.29 260.66 257.91C260.347 257.53 259.867 257.34 259.22 257.34C258.74 257.34 258.293 257.45 257.88 257.67C257.473 257.89 257.09 258.19 256.73 258.57V266H254.58V255.8H255.88C256.173 255.8 256.36 255.937 256.44 256.21L256.59 257.15ZM272.701 258.31C272.401 257.923 272.071 257.653 271.711 257.5C271.351 257.347 270.961 257.27 270.541 257.27C269.701 257.27 269.044 257.58 268.571 258.2C268.098 258.813 267.861 259.723 267.861 260.93C267.861 261.557 267.914 262.093 268.021 262.54C268.128 262.98 268.281 263.34 268.481 263.62C268.681 263.9 268.924 264.103 269.211 264.23C269.498 264.357 269.821 264.42 270.181 264.42C270.728 264.42 271.198 264.303 271.591 264.07C271.991 263.83 272.361 263.493 272.701 263.06V258.31ZM274.851 251.2V266H273.551C273.264 266 273.081 265.863 273.001 265.59L272.811 264.48C272.384 264.98 271.898 265.383 271.351 265.69C270.811 265.997 270.181 266.15 269.461 266.15C268.888 266.15 268.368 266.037 267.901 265.81C267.434 265.577 267.034 265.24 266.701 264.8C266.368 264.36 266.108 263.817 265.921 263.17C265.741 262.517 265.651 261.77 265.651 260.93C265.651 260.17 265.751 259.467 265.951 258.82C266.158 258.173 266.451 257.613 266.831 257.14C267.211 256.66 267.671 256.287 268.211 256.02C268.758 255.747 269.368 255.61 270.041 255.61C270.641 255.61 271.151 255.707 271.571 255.9C271.991 256.087 272.368 256.35 272.701 256.69V251.2H274.851ZM283.33 261.54C282.563 261.567 281.917 261.63 281.39 261.73C280.863 261.823 280.437 261.947 280.11 262.1C279.783 262.247 279.547 262.423 279.4 262.63C279.26 262.837 279.19 263.063 279.19 263.31C279.19 263.55 279.227 263.757 279.3 263.93C279.38 264.097 279.487 264.237 279.62 264.35C279.76 264.457 279.92 264.537 280.1 264.59C280.287 264.637 280.49 264.66 280.71 264.66C281.27 264.66 281.75 264.557 282.15 264.35C282.557 264.137 282.95 263.83 283.33 263.43V261.54ZM277.63 257.22C278.783 256.147 280.157 255.61 281.75 255.61C282.337 255.61 282.857 255.707 283.31 255.9C283.77 256.087 284.153 256.353 284.46 256.7C284.773 257.047 285.01 257.46 285.17 257.94C285.337 258.413 285.42 258.94 285.42 259.52V266H284.46C284.253 266 284.097 265.97 283.99 265.91C283.883 265.843 283.793 265.713 283.72 265.52L283.51 264.69C283.25 264.923 282.993 265.133 282.74 265.32C282.487 265.5 282.223 265.653 281.95 265.78C281.683 265.907 281.393 266 281.08 266.06C280.773 266.127 280.433 266.16 280.06 266.16C279.647 266.16 279.26 266.103 278.9 265.99C278.547 265.877 278.24 265.707 277.98 265.48C277.72 265.247 277.513 264.96 277.36 264.62C277.213 264.28 277.14 263.88 277.14 263.42C277.14 263.027 277.243 262.643 277.45 262.27C277.663 261.897 278.01 261.563 278.49 261.27C278.977 260.97 279.613 260.723 280.4 260.53C281.193 260.337 282.17 260.227 283.33 260.2V259.52C283.33 258.787 283.173 258.24 282.86 257.88C282.547 257.52 282.087 257.34 281.48 257.34C281.067 257.34 280.72 257.393 280.44 257.5C280.16 257.6 279.917 257.71 279.71 257.83C279.503 257.95 279.32 258.063 279.16 258.17C279 258.27 278.83 258.32 278.65 258.32C278.503 258.32 278.377 258.283 278.27 258.21C278.17 258.13 278.087 258.033 278.02 257.92L277.63 257.22ZM85.5298 284.06C85.4565 284.18 85.3798 284.27 85.2998 284.33C85.2198 284.383 85.1198 284.41 84.9998 284.41C84.8732 284.41 84.7298 284.357 84.5698 284.25C84.4165 284.143 84.2232 284.027 83.9898 283.9C83.7632 283.767 83.4932 283.647 83.1798 283.54C82.8665 283.427 82.4932 283.37 82.0598 283.37C81.6598 283.37 81.3065 283.42 80.9998 283.52C80.6998 283.62 80.4465 283.76 80.2398 283.94C80.0332 284.12 79.8765 284.333 79.7698 284.58C79.6698 284.82 79.6198 285.083 79.6198 285.37C79.6198 285.737 79.7165 286.043 79.9098 286.29C80.1032 286.53 80.3565 286.737 80.6698 286.91C80.9898 287.083 81.3532 287.237 81.7598 287.37C82.1665 287.497 82.5798 287.633 82.9998 287.78C83.4265 287.927 83.8432 288.093 84.2498 288.28C84.6565 288.467 85.0165 288.703 85.3298 288.99C85.6498 289.277 85.9065 289.627 86.0998 290.04C86.2932 290.453 86.3898 290.957 86.3898 291.55C86.3898 292.19 86.2798 292.79 86.0598 293.35C85.8398 293.91 85.5198 294.4 85.0998 294.82C84.6865 295.233 84.1732 295.56 83.5598 295.8C82.9532 296.04 82.2598 296.16 81.4798 296.16C81.0198 296.16 80.5698 296.113 80.1298 296.02C79.6965 295.933 79.2798 295.81 78.8798 295.65C78.4865 295.483 78.1165 295.283 77.7698 295.05C77.4232 294.817 77.1132 294.557 76.8398 294.27L77.5198 293.15C77.5798 293.057 77.6565 292.983 77.7498 292.93C77.8432 292.877 77.9465 292.85 78.0598 292.85C78.2132 292.85 78.3832 292.923 78.5698 293.07C78.7565 293.21 78.9798 293.367 79.2398 293.54C79.5065 293.707 79.8265 293.863 80.1998 294.01C80.5732 294.15 81.0198 294.22 81.5398 294.22C82.3865 294.22 83.0398 294.013 83.4998 293.6C83.9665 293.187 84.1998 292.617 84.1998 291.89C84.1998 291.483 84.1032 291.153 83.9098 290.9C83.7165 290.64 83.4598 290.423 83.1398 290.25C82.8265 290.077 82.4665 289.93 82.0598 289.81C81.6532 289.69 81.2398 289.563 80.8198 289.43C80.3998 289.29 79.9865 289.13 79.5798 288.95C79.1732 288.763 78.8098 288.523 78.4898 288.23C78.1765 287.93 77.9232 287.563 77.7298 287.13C77.5365 286.69 77.4398 286.143 77.4398 285.49C77.4398 284.97 77.5398 284.467 77.7398 283.98C77.9465 283.493 78.2432 283.063 78.6298 282.69C79.0232 282.31 79.5065 282.007 80.0798 281.78C80.6532 281.553 81.3065 281.44 82.0398 281.44C82.8665 281.44 83.6232 281.57 84.3098 281.83C85.0032 282.09 85.5998 282.46 86.0998 282.94L85.5298 284.06ZM94.2311 291.54C93.4644 291.567 92.8178 291.63 92.2911 291.73C91.7644 291.823 91.3378 291.947 91.0111 292.1C90.6844 292.247 90.4478 292.423 90.3011 292.63C90.1611 292.837 90.0911 293.063 90.0911 293.31C90.0911 293.55 90.1278 293.757 90.2011 293.93C90.2811 294.097 90.3878 294.237 90.5211 294.35C90.6611 294.457 90.8211 294.537 91.0011 294.59C91.1878 294.637 91.3911 294.66 91.6111 294.66C92.1711 294.66 92.6511 294.557 93.0511 294.35C93.4578 294.137 93.8511 293.83 94.2311 293.43V291.54ZM88.5311 287.22C89.6844 286.147 91.0578 285.61 92.6511 285.61C93.2378 285.61 93.7578 285.707 94.2111 285.9C94.6711 286.087 95.0544 286.353 95.3611 286.7C95.6744 287.047 95.9111 287.46 96.0711 287.94C96.2378 288.413 96.3211 288.94 96.3211 289.52V296H95.3611C95.1544 296 94.9978 295.97 94.8911 295.91C94.7844 295.843 94.6944 295.713 94.6211 295.52L94.4111 294.69C94.1511 294.923 93.8944 295.133 93.6411 295.32C93.3878 295.5 93.1244 295.653 92.8511 295.78C92.5844 295.907 92.2944 296 91.9811 296.06C91.6744 296.127 91.3344 296.16 90.9611 296.16C90.5478 296.16 90.1611 296.103 89.8011 295.99C89.4478 295.877 89.1411 295.707 88.8811 295.48C88.6211 295.247 88.4144 294.96 88.2611 294.62C88.1144 294.28 88.0411 293.88 88.0411 293.42C88.0411 293.027 88.1444 292.643 88.3511 292.27C88.5644 291.897 88.9111 291.563 89.3911 291.27C89.8778 290.97 90.5144 290.723 91.3011 290.53C92.0944 290.337 93.0711 290.227 94.2311 290.2V289.52C94.2311 288.787 94.0744 288.24 93.7611 287.88C93.4478 287.52 92.9878 287.34 92.3811 287.34C91.9678 287.34 91.6211 287.393 91.3411 287.5C91.0611 287.6 90.8178 287.71 90.6111 287.83C90.4044 287.95 90.2211 288.063 90.0611 288.17C89.9011 288.27 89.7311 288.32 89.5511 288.32C89.4044 288.32 89.2778 288.283 89.1711 288.21C89.0711 288.13 88.9878 288.033 88.9211 287.92L88.5311 287.22ZM104.69 291.54C103.923 291.567 103.276 291.63 102.75 291.73C102.223 291.823 101.796 291.947 101.47 292.1C101.143 292.247 100.906 292.423 100.76 292.63C100.62 292.837 100.55 293.063 100.55 293.31C100.55 293.55 100.586 293.757 100.66 293.93C100.74 294.097 100.846 294.237 100.98 294.35C101.12 294.457 101.28 294.537 101.46 294.59C101.646 294.637 101.85 294.66 102.07 294.66C102.63 294.66 103.11 294.557 103.51 294.35C103.916 294.137 104.31 293.83 104.69 293.43V291.54ZM98.9897 287.22C100.143 286.147 101.516 285.61 103.11 285.61C103.696 285.61 104.216 285.707 104.67 285.9C105.13 286.087 105.513 286.353 105.82 286.7C106.133 287.047 106.37 287.46 106.53 287.94C106.696 288.413 106.78 288.94 106.78 289.52V296H105.82C105.613 296 105.456 295.97 105.35 295.91C105.243 295.843 105.153 295.713 105.08 295.52L104.87 294.69C104.61 294.923 104.353 295.133 104.1 295.32C103.846 295.5 103.583 295.653 103.31 295.78C103.043 295.907 102.753 296 102.44 296.06C102.133 296.127 101.793 296.16 101.42 296.16C101.006 296.16 100.62 296.103 100.26 295.99C99.9064 295.877 99.5997 295.707 99.3397 295.48C99.0797 295.247 98.873 294.96 98.7197 294.62C98.573 294.28 98.4997 293.88 98.4997 293.42C98.4997 293.027 98.603 292.643 98.8097 292.27C99.023 291.897 99.3697 291.563 99.8497 291.27C100.336 290.97 100.973 290.723 101.76 290.53C102.553 290.337 103.53 290.227 104.69 290.2V289.52C104.69 288.787 104.533 288.24 104.22 287.88C103.906 287.52 103.446 287.34 102.84 287.34C102.426 287.34 102.08 287.393 101.8 287.5C101.52 287.6 101.276 287.71 101.07 287.83C100.863 287.95 100.68 288.063 100.52 288.17C100.36 288.27 100.19 288.32 100.01 288.32C99.863 288.32 99.7364 288.283 99.6297 288.21C99.5297 288.13 99.4464 288.033 99.3797 287.92L98.9897 287.22ZM112.832 296.16C111.985 296.16 111.332 295.923 110.872 295.45C110.418 294.97 110.192 294.297 110.192 293.43V287.49H109.072C108.952 287.49 108.848 287.453 108.762 287.38C108.675 287.3 108.632 287.183 108.632 287.03V286.16L110.282 285.92L110.752 282.97C110.785 282.857 110.842 282.767 110.922 282.7C111.002 282.627 111.108 282.59 111.242 282.59H112.342V285.94H115.172V287.49H112.342V293.28C112.342 293.647 112.432 293.927 112.612 294.12C112.792 294.313 113.032 294.41 113.332 294.41C113.498 294.41 113.642 294.39 113.762 294.35C113.882 294.303 113.985 294.257 114.072 294.21C114.158 294.157 114.232 294.11 114.292 294.07C114.358 294.023 114.422 294 114.482 294C114.602 294 114.698 294.067 114.772 294.2L115.412 295.25C115.078 295.543 114.685 295.77 114.232 295.93C113.778 296.083 113.312 296.16 112.832 296.16ZM125.397 296H123.047V281.6H125.397V296ZM130.662 287.15C130.882 286.923 131.109 286.72 131.342 286.54C131.582 286.353 131.836 286.193 132.102 286.06C132.369 285.927 132.652 285.823 132.952 285.75C133.252 285.677 133.579 285.64 133.932 285.64C134.492 285.64 134.982 285.733 135.402 285.92C135.829 286.107 136.186 286.37 136.472 286.71C136.766 287.05 136.986 287.46 137.132 287.94C137.279 288.413 137.352 288.937 137.352 289.51V296H135.212V289.51C135.212 288.823 135.052 288.29 134.732 287.91C134.419 287.53 133.939 287.34 133.292 287.34C132.812 287.34 132.366 287.45 131.952 287.67C131.546 287.89 131.162 288.19 130.802 288.57V296H128.652V285.8H129.952C130.246 285.8 130.432 285.937 130.512 286.21L130.662 287.15ZM142.503 285.8V296H140.353V285.8H142.503ZM142.863 282.72C142.863 282.913 142.823 283.097 142.743 283.27C142.67 283.443 142.566 283.597 142.433 283.73C142.3 283.857 142.143 283.96 141.963 284.04C141.79 284.113 141.603 284.15 141.403 284.15C141.21 284.15 141.026 284.113 140.853 284.04C140.686 283.96 140.54 283.857 140.413 283.73C140.286 283.597 140.183 283.443 140.103 283.27C140.03 283.097 139.993 282.913 139.993 282.72C139.993 282.52 140.03 282.333 140.103 282.16C140.183 281.987 140.286 281.837 140.413 281.71C140.54 281.577 140.686 281.473 140.853 281.4C141.026 281.32 141.21 281.28 141.403 281.28C141.603 281.28 141.79 281.32 141.963 281.4C142.143 281.473 142.3 281.577 142.433 281.71C142.566 281.837 142.67 281.987 142.743 282.16C142.823 282.333 142.863 282.52 142.863 282.72ZM153.725 287.76H154.395C154.648 287.76 154.855 287.727 155.015 287.66C155.175 287.587 155.318 287.473 155.445 287.32L159.805 282.12C159.958 281.927 160.115 281.793 160.275 281.72C160.442 281.64 160.648 281.6 160.895 281.6H162.895L157.745 287.68C157.605 287.853 157.468 288 157.335 288.12C157.208 288.233 157.068 288.327 156.915 288.4C157.115 288.473 157.295 288.577 157.455 288.71C157.615 288.837 157.772 289.007 157.925 289.22L163.265 296H161.225C161.078 296 160.952 295.99 160.845 295.97C160.745 295.95 160.655 295.92 160.575 295.88C160.502 295.84 160.435 295.79 160.375 295.73C160.322 295.67 160.272 295.603 160.225 295.53L155.725 290.03C155.658 289.943 155.592 289.87 155.525 289.81C155.458 289.75 155.378 289.7 155.285 289.66C155.198 289.62 155.098 289.593 154.985 289.58C154.872 289.56 154.738 289.55 154.585 289.55H153.725V296H151.385V281.6H153.725V287.76ZM168.549 285.64C169.302 285.64 169.982 285.763 170.589 286.01C171.202 286.257 171.722 286.607 172.149 287.06C172.582 287.513 172.916 288.063 173.149 288.71C173.382 289.357 173.499 290.083 173.499 290.89C173.499 291.697 173.382 292.423 173.149 293.07C172.916 293.717 172.582 294.27 172.149 294.73C171.722 295.183 171.202 295.533 170.589 295.78C169.982 296.027 169.302 296.15 168.549 296.15C167.789 296.15 167.102 296.027 166.489 295.78C165.882 295.533 165.362 295.183 164.929 294.73C164.496 294.27 164.162 293.717 163.929 293.07C163.696 292.423 163.579 291.697 163.579 290.89C163.579 290.083 163.696 289.357 163.929 288.71C164.162 288.063 164.496 287.513 164.929 287.06C165.362 286.607 165.882 286.257 166.489 286.01C167.102 285.763 167.789 285.64 168.549 285.64ZM168.549 294.47C169.469 294.47 170.152 294.163 170.599 293.55C171.052 292.93 171.279 292.047 171.279 290.9C171.279 289.753 171.052 288.87 170.599 288.25C170.152 287.623 169.469 287.31 168.549 287.31C167.616 287.31 166.922 287.623 166.469 288.25C166.016 288.87 165.789 289.753 165.789 290.9C165.789 292.047 166.016 292.93 166.469 293.55C166.922 294.163 167.616 294.47 168.549 294.47ZM182.055 287.65C182.001 287.743 181.941 287.81 181.875 287.85C181.808 287.89 181.725 287.91 181.625 287.91C181.511 287.91 181.388 287.877 181.255 287.81C181.121 287.737 180.965 287.657 180.785 287.57C180.605 287.483 180.391 287.407 180.145 287.34C179.905 287.267 179.621 287.23 179.295 287.23C179.028 287.23 178.785 287.263 178.565 287.33C178.351 287.39 178.168 287.48 178.015 287.6C177.868 287.713 177.755 287.85 177.675 288.01C177.595 288.163 177.555 288.33 177.555 288.51C177.555 288.75 177.628 288.95 177.775 289.11C177.921 289.27 178.115 289.41 178.355 289.53C178.595 289.643 178.868 289.747 179.175 289.84C179.481 289.933 179.795 290.033 180.115 290.14C180.435 290.247 180.748 290.37 181.055 290.51C181.361 290.65 181.635 290.823 181.875 291.03C182.115 291.23 182.308 291.477 182.455 291.77C182.601 292.057 182.675 292.407 182.675 292.82C182.675 293.3 182.588 293.743 182.415 294.15C182.241 294.557 181.988 294.91 181.655 295.21C181.321 295.51 180.905 295.743 180.405 295.91C179.911 296.077 179.345 296.16 178.705 296.16C178.351 296.16 178.008 296.127 177.675 296.06C177.348 296 177.035 295.917 176.735 295.81C176.441 295.697 176.165 295.563 175.905 295.41C175.651 295.257 175.425 295.09 175.225 294.91L175.725 294.09C175.785 293.99 175.858 293.913 175.945 293.86C176.038 293.8 176.151 293.77 176.285 293.77C176.425 293.77 176.561 293.817 176.695 293.91C176.835 293.997 176.995 294.093 177.175 294.2C177.361 294.307 177.585 294.407 177.845 294.5C178.105 294.587 178.428 294.63 178.815 294.63C179.135 294.63 179.411 294.593 179.645 294.52C179.878 294.44 180.071 294.333 180.225 294.2C180.378 294.067 180.491 293.917 180.565 293.75C180.638 293.577 180.675 293.393 180.675 293.2C180.675 292.94 180.601 292.727 180.455 292.56C180.308 292.393 180.111 292.25 179.865 292.13C179.625 292.01 179.348 291.903 179.035 291.81C178.728 291.717 178.415 291.617 178.095 291.51C177.775 291.403 177.458 291.28 177.145 291.14C176.838 291 176.561 290.823 176.315 290.61C176.075 290.39 175.881 290.127 175.735 289.82C175.588 289.507 175.515 289.127 175.515 288.68C175.515 288.273 175.595 287.887 175.755 287.52C175.921 287.153 176.161 286.83 176.475 286.55C176.795 286.27 177.185 286.05 177.645 285.89C178.111 285.723 178.648 285.64 179.255 285.64C179.941 285.64 180.565 285.75 181.125 285.97C181.685 286.19 182.155 286.49 182.535 286.87L182.055 287.65ZM189.505 285.64C190.258 285.64 190.938 285.763 191.545 286.01C192.158 286.257 192.678 286.607 193.105 287.06C193.538 287.513 193.872 288.063 194.105 288.71C194.338 289.357 194.455 290.083 194.455 290.89C194.455 291.697 194.338 292.423 194.105 293.07C193.872 293.717 193.538 294.27 193.105 294.73C192.678 295.183 192.158 295.533 191.545 295.78C190.938 296.027 190.258 296.15 189.505 296.15C188.745 296.15 188.058 296.027 187.445 295.78C186.838 295.533 186.318 295.183 185.885 294.73C185.452 294.27 185.118 293.717 184.885 293.07C184.652 292.423 184.535 291.697 184.535 290.89C184.535 290.083 184.652 289.357 184.885 288.71C185.118 288.063 185.452 287.513 185.885 287.06C186.318 286.607 186.838 286.257 187.445 286.01C188.058 285.763 188.745 285.64 189.505 285.64ZM189.505 294.47C190.425 294.47 191.108 294.163 191.555 293.55C192.008 292.93 192.235 292.047 192.235 290.9C192.235 289.753 192.008 288.87 191.555 288.25C191.108 287.623 190.425 287.31 189.505 287.31C188.572 287.31 187.878 287.623 187.425 288.25C186.972 288.87 186.745 289.753 186.745 290.9C186.745 292.047 186.972 292.93 187.425 293.55C187.878 294.163 188.572 294.47 189.505 294.47ZM198.931 287.15C199.151 286.923 199.378 286.72 199.611 286.54C199.851 286.353 200.104 286.193 200.371 286.06C200.638 285.927 200.921 285.823 201.221 285.75C201.521 285.677 201.848 285.64 202.201 285.64C202.761 285.64 203.251 285.733 203.671 285.92C204.098 286.107 204.454 286.37 204.741 286.71C205.034 287.05 205.254 287.46 205.401 287.94C205.548 288.413 205.621 288.937 205.621 289.51V296H203.481V289.51C203.481 288.823 203.321 288.29 203.001 287.91C202.688 287.53 202.208 287.34 201.561 287.34C201.081 287.34 200.634 287.45 200.221 287.67C199.814 287.89 199.431 288.19 199.071 288.57V296H196.921V285.8H198.221C198.514 285.8 198.701 285.937 198.781 286.21L198.931 287.15ZM212.172 290.81C212.839 290.81 213.339 290.64 213.672 290.3C214.005 289.96 214.172 289.517 214.172 288.97C214.172 288.41 214.005 287.967 213.672 287.64C213.339 287.313 212.839 287.15 212.172 287.15C211.512 287.15 211.012 287.313 210.672 287.64C210.339 287.967 210.172 288.41 210.172 288.97C210.172 289.237 210.215 289.483 210.302 289.71C210.389 289.937 210.515 290.133 210.682 290.3C210.849 290.46 211.055 290.587 211.302 290.68C211.555 290.767 211.845 290.81 212.172 290.81ZM215.162 296.5C215.162 296.273 215.095 296.093 214.962 295.96C214.835 295.82 214.662 295.713 214.442 295.64C214.222 295.56 213.965 295.503 213.672 295.47C213.379 295.43 213.065 295.403 212.732 295.39C212.405 295.37 212.069 295.353 211.722 295.34C211.382 295.32 211.052 295.287 210.732 295.24C210.412 295.407 210.149 295.607 209.942 295.84C209.742 296.073 209.642 296.343 209.642 296.65C209.642 296.85 209.692 297.037 209.792 297.21C209.899 297.383 210.059 297.533 210.272 297.66C210.492 297.787 210.769 297.887 211.102 297.96C211.442 298.033 211.849 298.07 212.322 298.07C213.269 298.07 213.979 297.923 214.452 297.63C214.925 297.337 215.162 296.96 215.162 296.5ZM217.322 286.17V286.97C217.322 287.237 217.162 287.4 216.842 287.46L215.822 287.63C215.995 288.017 216.082 288.447 216.082 288.92C216.082 289.42 215.982 289.873 215.782 290.28C215.589 290.687 215.319 291.033 214.972 291.32C214.625 291.607 214.212 291.827 213.732 291.98C213.252 292.133 212.732 292.21 212.172 292.21C211.959 292.21 211.749 292.2 211.542 292.18C211.342 292.153 211.145 292.12 210.952 292.08C210.759 292.193 210.615 292.313 210.522 292.44C210.429 292.567 210.382 292.697 210.382 292.83C210.382 293.05 210.479 293.213 210.672 293.32C210.865 293.427 211.119 293.503 211.432 293.55C211.752 293.597 212.115 293.627 212.522 293.64C212.929 293.653 213.342 293.677 213.762 293.71C214.182 293.743 214.595 293.8 215.002 293.88C215.409 293.953 215.769 294.08 216.082 294.26C216.402 294.433 216.659 294.67 216.852 294.97C217.045 295.27 217.142 295.66 217.142 296.14C217.142 296.58 217.032 297.01 216.812 297.43C216.592 297.85 216.272 298.223 215.852 298.55C215.439 298.877 214.932 299.137 214.332 299.33C213.732 299.53 213.049 299.63 212.282 299.63C211.522 299.63 210.859 299.557 210.292 299.41C209.732 299.263 209.262 299.063 208.882 298.81C208.509 298.563 208.229 298.277 208.042 297.95C207.862 297.623 207.772 297.283 207.772 296.93C207.772 296.45 207.922 296.04 208.222 295.7C208.529 295.36 208.942 295.093 209.462 294.9C209.182 294.767 208.955 294.583 208.782 294.35C208.615 294.117 208.532 293.81 208.532 293.43C208.532 293.13 208.642 292.817 208.862 292.49C209.082 292.163 209.412 291.887 209.852 291.66C209.345 291.38 208.945 291.01 208.652 290.55C208.359 290.083 208.212 289.54 208.212 288.92C208.212 288.413 208.309 287.957 208.502 287.55C208.702 287.143 208.979 286.797 209.332 286.51C209.685 286.223 210.102 286.003 210.582 285.85C211.069 285.697 211.599 285.62 212.172 285.62C213.052 285.62 213.819 285.803 214.472 286.17H217.322Z" fill="black"/>
<path d="M36.0511 317.232C35.9871 317.349 35.8885 317.408 35.7551 317.408C35.6751 317.408 35.5845 317.379 35.4831 317.32C35.3818 317.261 35.2565 317.197 35.1071 317.128C34.9631 317.053 34.7898 316.987 34.5871 316.928C34.3845 316.864 34.1445 316.832 33.8671 316.832C33.6271 316.832 33.4111 316.864 33.2191 316.928C33.0271 316.987 32.8618 317.069 32.7231 317.176C32.5898 317.283 32.4858 317.408 32.4111 317.552C32.3418 317.691 32.3071 317.843 32.3071 318.008C32.3071 318.216 32.3658 318.389 32.4831 318.528C32.6058 318.667 32.7658 318.787 32.9631 318.888C33.1605 318.989 33.3845 319.08 33.6351 319.16C33.8858 319.235 34.1418 319.317 34.4031 319.408C34.6698 319.493 34.9285 319.589 35.1791 319.696C35.4298 319.803 35.6538 319.936 35.8511 320.096C36.0485 320.256 36.2058 320.453 36.3231 320.688C36.4458 320.917 36.5071 321.195 36.5071 321.52C36.5071 321.893 36.4405 322.24 36.3071 322.56C36.1738 322.875 35.9765 323.149 35.7151 323.384C35.4538 323.613 35.1338 323.795 34.7551 323.928C34.3765 324.061 33.9391 324.128 33.4431 324.128C32.8778 324.128 32.3658 324.037 31.9071 323.856C31.4485 323.669 31.0591 323.432 30.7391 323.144L31.0751 322.6C31.1178 322.531 31.1685 322.477 31.2271 322.44C31.2858 322.403 31.3605 322.384 31.4511 322.384C31.5471 322.384 31.6485 322.421 31.7551 322.496C31.8618 322.571 31.9898 322.653 32.1391 322.744C32.2938 322.835 32.4805 322.917 32.6991 322.992C32.9178 323.067 33.1898 323.104 33.5151 323.104C33.7925 323.104 34.0351 323.069 34.2431 323C34.4511 322.925 34.6245 322.827 34.7631 322.704C34.9018 322.581 35.0031 322.44 35.0671 322.28C35.1365 322.12 35.1711 321.949 35.1711 321.768C35.1711 321.544 35.1098 321.36 34.9871 321.216C34.8698 321.067 34.7125 320.941 34.5151 320.84C34.3178 320.733 34.0911 320.643 33.8351 320.568C33.5845 320.488 33.3258 320.405 33.0591 320.32C32.7978 320.235 32.5391 320.139 32.2831 320.032C32.0325 319.92 31.8085 319.781 31.6111 319.616C31.4138 319.451 31.2538 319.248 31.1311 319.008C31.0138 318.763 30.9551 318.467 30.9551 318.12C30.9551 317.811 31.0191 317.515 31.1471 317.232C31.2751 316.944 31.4618 316.693 31.7071 316.48C31.9525 316.261 32.2538 316.088 32.6111 315.96C32.9685 315.832 33.3765 315.768 33.8351 315.768C34.3685 315.768 34.8458 315.853 35.2671 316.024C35.6938 316.189 36.0618 316.419 36.3711 316.712L36.0511 317.232ZM43.677 319.064C43.677 318.733 43.629 318.432 43.533 318.16C43.4423 317.883 43.3063 317.645 43.125 317.448C42.949 317.245 42.733 317.091 42.477 316.984C42.221 316.872 41.9303 316.816 41.605 316.816C40.9223 316.816 40.381 317.016 39.981 317.416C39.5863 317.811 39.341 318.36 39.245 319.064H43.677ZM44.829 322.864C44.653 323.077 44.4423 323.264 44.197 323.424C43.9517 323.579 43.6877 323.707 43.405 323.808C43.1277 323.909 42.8397 323.984 42.541 324.032C42.2423 324.085 41.9463 324.112 41.653 324.112C41.093 324.112 40.5757 324.019 40.101 323.832C39.6317 323.64 39.2237 323.363 38.877 323C38.5357 322.632 38.269 322.179 38.077 321.64C37.885 321.101 37.789 320.483 37.789 319.784C37.789 319.219 37.8743 318.691 38.045 318.2C38.221 317.709 38.4717 317.285 38.797 316.928C39.1223 316.565 39.5197 316.283 39.989 316.08C40.4583 315.872 40.9863 315.768 41.573 315.768C42.0583 315.768 42.5063 315.851 42.917 316.016C43.333 316.176 43.6903 316.411 43.989 316.72C44.293 317.024 44.5303 317.403 44.701 317.856C44.8717 318.304 44.957 318.816 44.957 319.392C44.957 319.616 44.933 319.765 44.885 319.84C44.837 319.915 44.7463 319.952 44.613 319.952H39.197C39.213 320.464 39.2823 320.909 39.405 321.288C39.533 321.667 39.709 321.984 39.933 322.24C40.157 322.491 40.4237 322.68 40.733 322.808C41.0423 322.931 41.389 322.992 41.773 322.992C42.1303 322.992 42.437 322.952 42.693 322.872C42.9543 322.787 43.1783 322.696 43.365 322.6C43.5517 322.504 43.7063 322.416 43.829 322.336C43.957 322.251 44.0663 322.208 44.157 322.208C44.2743 322.208 44.365 322.253 44.429 322.344L44.829 322.864ZM46.7061 324V315.896H47.5621C47.7648 315.896 47.8901 315.995 47.9381 316.192L48.0421 317.024C48.3408 316.656 48.6768 316.355 49.0501 316.12C49.4235 315.885 49.8555 315.768 50.3461 315.768C50.8901 315.768 51.3301 315.92 51.6661 316.224C52.0075 316.528 52.2528 316.939 52.4021 317.456C52.5195 317.163 52.6688 316.909 52.8501 316.696C53.0368 316.483 53.2448 316.307 53.4741 316.168C53.7035 316.029 53.9461 315.928 54.2021 315.864C54.4635 315.8 54.7275 315.768 54.9941 315.768C55.4208 315.768 55.7995 315.837 56.1301 315.976C56.4661 316.109 56.7488 316.307 56.9781 316.568C57.2128 316.829 57.3915 317.152 57.5141 317.536C57.6368 317.915 57.6981 318.349 57.6981 318.84V324H56.2661V318.84C56.2661 318.205 56.1275 317.725 55.8501 317.4C55.5728 317.069 55.1728 316.904 54.6501 316.904C54.4155 316.904 54.1915 316.947 53.9781 317.032C53.7701 317.112 53.5861 317.232 53.4261 317.392C53.2661 317.552 53.1381 317.755 53.0421 318C52.9515 318.24 52.9061 318.52 52.9061 318.84V324H51.4741V318.84C51.4741 318.189 51.3435 317.704 51.0821 317.384C50.8208 317.064 50.4395 316.904 49.9381 316.904C49.5861 316.904 49.2608 317 48.9621 317.192C48.6635 317.379 48.3888 317.635 48.1381 317.96V324H46.7061ZM66.5264 315.896V324H65.6784C65.4757 324 65.3477 323.901 65.2944 323.704L65.1824 322.832C64.8304 323.221 64.4357 323.536 63.9984 323.776C63.561 324.011 63.0597 324.128 62.4944 324.128C62.0517 324.128 61.6597 324.056 61.3184 323.912C60.9824 323.763 60.6997 323.555 60.4704 323.288C60.241 323.021 60.0677 322.699 59.9504 322.32C59.8384 321.941 59.7824 321.523 59.7824 321.064V315.896H61.2064V321.064C61.2064 321.677 61.345 322.152 61.6224 322.488C61.905 322.824 62.3344 322.992 62.9104 322.992C63.3317 322.992 63.7237 322.893 64.0864 322.696C64.4544 322.493 64.793 322.216 65.1024 321.864V315.896H66.5264ZM73.1763 320.352C72.5203 320.373 71.9603 320.427 71.4963 320.512C71.0376 320.592 70.6616 320.699 70.3683 320.832C70.0803 320.965 69.8696 321.123 69.7363 321.304C69.6083 321.485 69.5443 321.688 69.5443 321.912C69.5443 322.125 69.5789 322.309 69.6483 322.464C69.7176 322.619 69.8109 322.747 69.9283 322.848C70.0509 322.944 70.1923 323.016 70.3523 323.064C70.5176 323.107 70.6936 323.128 70.8803 323.128C71.1309 323.128 71.3603 323.104 71.5683 323.056C71.7763 323.003 71.9709 322.928 72.1523 322.832C72.3389 322.736 72.5149 322.621 72.6803 322.488C72.8509 322.355 73.0163 322.203 73.1763 322.032V320.352ZM68.5763 317.04C69.0243 316.608 69.5069 316.285 70.0243 316.072C70.5416 315.859 71.1149 315.752 71.7443 315.752C72.1976 315.752 72.6003 315.827 72.9523 315.976C73.3043 316.125 73.6003 316.333 73.8403 316.6C74.0803 316.867 74.2616 317.189 74.3843 317.568C74.5069 317.947 74.5683 318.363 74.5683 318.816V324H73.9363C73.7976 324 73.6909 323.979 73.6163 323.936C73.5416 323.888 73.4829 323.797 73.4403 323.664L73.2803 322.896C73.0669 323.093 72.8589 323.269 72.6562 323.424C72.4536 323.573 72.2403 323.701 72.0163 323.808C71.7923 323.909 71.5523 323.987 71.2963 324.04C71.0456 324.099 70.7656 324.128 70.4563 324.128C70.1416 324.128 69.8456 324.085 69.5683 324C69.2909 323.909 69.0483 323.776 68.8403 323.6C68.6376 323.424 68.4749 323.203 68.3523 322.936C68.2349 322.664 68.1763 322.344 68.1763 321.976C68.1763 321.656 68.2643 321.349 68.4403 321.056C68.6163 320.757 68.9016 320.493 69.2963 320.264C69.6909 320.035 70.2056 319.848 70.8403 319.704C71.4749 319.555 72.2536 319.469 73.1763 319.448V318.816C73.1763 318.187 73.0403 317.712 72.7683 317.392C72.4963 317.067 72.0989 316.904 71.5763 316.904C71.2243 316.904 70.9283 316.949 70.6883 317.04C70.4536 317.125 70.2483 317.224 70.0723 317.336C69.9016 317.443 69.7523 317.541 69.6243 317.632C69.5016 317.717 69.3789 317.76 69.2563 317.76C69.1603 317.76 69.0776 317.736 69.0083 317.688C68.9389 317.635 68.8803 317.571 68.8322 317.496L68.5763 317.04ZM82.2631 322.048C82.5245 322.4 82.8098 322.648 83.1191 322.792C83.4285 322.936 83.7751 323.008 84.1591 323.008C84.9165 323.008 85.4978 322.739 85.9031 322.2C86.3085 321.661 86.5111 320.893 86.5111 319.896C86.5111 319.368 86.4631 318.915 86.3671 318.536C86.2765 318.157 86.1431 317.848 85.9671 317.608C85.7911 317.363 85.5751 317.184 85.3191 317.072C85.0631 316.96 84.7725 316.904 84.4471 316.904C83.9831 316.904 83.5751 317.011 83.2231 317.224C82.8765 317.437 82.5565 317.739 82.2631 318.128V322.048ZM82.1911 317.152C82.5325 316.731 82.9271 316.392 83.3751 316.136C83.8231 315.88 84.3351 315.752 84.9111 315.752C85.3805 315.752 85.8045 315.843 86.1831 316.024C86.5618 316.2 86.8845 316.464 87.1511 316.816C87.4178 317.163 87.6231 317.595 87.7671 318.112C87.9111 318.629 87.9831 319.224 87.9831 319.896C87.9831 320.493 87.9031 321.051 87.7431 321.568C87.5831 322.08 87.3511 322.525 87.0471 322.904C86.7485 323.277 86.3805 323.573 85.9431 323.792C85.5111 324.005 85.0231 324.112 84.4791 324.112C83.9831 324.112 83.5565 324.029 83.1991 323.864C82.8471 323.693 82.5351 323.459 82.2631 323.16V326.744H80.8311V315.896H81.6871C81.8898 315.896 82.0151 315.995 82.0631 316.192L82.1911 317.152ZM95.2239 319.064C95.2239 318.733 95.1759 318.432 95.0799 318.16C94.9892 317.883 94.8532 317.645 94.6719 317.448C94.4959 317.245 94.2799 317.091 94.0239 316.984C93.7679 316.872 93.4772 316.816 93.1519 316.816C92.4692 316.816 91.9279 317.016 91.5279 317.416C91.1332 317.811 90.8879 318.36 90.7919 319.064H95.2239ZM96.3759 322.864C96.1999 323.077 95.9892 323.264 95.7439 323.424C95.4985 323.579 95.2345 323.707 94.9519 323.808C94.6745 323.909 94.3865 323.984 94.0879 324.032C93.7892 324.085 93.4932 324.112 93.1999 324.112C92.6399 324.112 92.1225 324.019 91.6479 323.832C91.1785 323.64 90.7705 323.363 90.4239 323C90.0825 322.632 89.8159 322.179 89.6239 321.64C89.4319 321.101 89.3359 320.483 89.3359 319.784C89.3359 319.219 89.4212 318.691 89.5919 318.2C89.7679 317.709 90.0185 317.285 90.3439 316.928C90.6692 316.565 91.0665 316.283 91.5359 316.08C92.0052 315.872 92.5332 315.768 93.1199 315.768C93.6052 315.768 94.0532 315.851 94.4639 316.016C94.8799 316.176 95.2372 316.411 95.5359 316.72C95.8399 317.024 96.0772 317.403 96.2479 317.856C96.4185 318.304 96.5039 318.816 96.5039 319.392C96.5039 319.616 96.4799 319.765 96.4319 319.84C96.3839 319.915 96.2932 319.952 96.1599 319.952H90.7439C90.7599 320.464 90.8292 320.909 90.9519 321.288C91.0799 321.667 91.2559 321.984 91.4799 322.24C91.7039 322.491 91.9705 322.68 92.2799 322.808C92.5892 322.931 92.9359 322.992 93.3199 322.992C93.6772 322.992 93.9839 322.952 94.2399 322.872C94.5012 322.787 94.7252 322.696 94.9119 322.6C95.0985 322.504 95.2532 322.416 95.3759 322.336C95.5039 322.251 95.6132 322.208 95.7039 322.208C95.8212 322.208 95.9119 322.253 95.9759 322.344L96.3759 322.864ZM102.973 317.232C102.909 317.349 102.81 317.408 102.677 317.408C102.597 317.408 102.506 317.379 102.405 317.32C102.304 317.261 102.178 317.197 102.029 317.128C101.885 317.053 101.712 316.987 101.509 316.928C101.306 316.864 101.066 316.832 100.789 316.832C100.549 316.832 100.333 316.864 100.141 316.928C99.949 316.987 99.7837 317.069 99.645 317.176C99.5117 317.283 99.4077 317.408 99.333 317.552C99.2637 317.691 99.229 317.843 99.229 318.008C99.229 318.216 99.2877 318.389 99.405 318.528C99.5277 318.667 99.6877 318.787 99.885 318.888C100.082 318.989 100.306 319.08 100.557 319.16C100.808 319.235 101.064 319.317 101.325 319.408C101.592 319.493 101.85 319.589 102.101 319.696C102.352 319.803 102.576 319.936 102.773 320.096C102.97 320.256 103.128 320.453 103.245 320.688C103.368 320.917 103.429 321.195 103.429 321.52C103.429 321.893 103.362 322.24 103.229 322.56C103.096 322.875 102.898 323.149 102.637 323.384C102.376 323.613 102.056 323.795 101.677 323.928C101.298 324.061 100.861 324.128 100.365 324.128C99.7997 324.128 99.2877 324.037 98.829 323.856C98.3703 323.669 97.981 323.432 97.661 323.144L97.997 322.6C98.0397 322.531 98.0903 322.477 98.149 322.44C98.2077 322.403 98.2823 322.384 98.373 322.384C98.469 322.384 98.5703 322.421 98.677 322.496C98.7837 322.571 98.9117 322.653 99.061 322.744C99.2157 322.835 99.4023 322.917 99.621 322.992C99.8397 323.067 100.112 323.104 100.437 323.104C100.714 323.104 100.957 323.069 101.165 323C101.373 322.925 101.546 322.827 101.685 322.704C101.824 322.581 101.925 322.44 101.989 322.28C102.058 322.12 102.093 321.949 102.093 321.768C102.093 321.544 102.032 321.36 101.909 321.216C101.792 321.067 101.634 320.941 101.437 320.84C101.24 320.733 101.013 320.643 100.757 320.568C100.506 320.488 100.248 320.405 99.981 320.32C99.7197 320.235 99.461 320.139 99.205 320.032C98.9543 319.92 98.7303 319.781 98.533 319.616C98.3357 319.451 98.1757 319.248 98.053 319.008C97.9357 318.763 97.877 318.467 97.877 318.12C97.877 317.811 97.941 317.515 98.069 317.232C98.197 316.944 98.3837 316.693 98.629 316.48C98.8743 316.261 99.1757 316.088 99.533 315.96C99.8903 315.832 100.298 315.768 100.757 315.768C101.29 315.768 101.768 315.853 102.189 316.024C102.616 316.189 102.984 316.419 103.293 316.712L102.973 317.232ZM109.567 320.352C108.911 320.373 108.351 320.427 107.887 320.512C107.428 320.592 107.052 320.699 106.759 320.832C106.471 320.965 106.26 321.123 106.127 321.304C105.999 321.485 105.935 321.688 105.935 321.912C105.935 322.125 105.97 322.309 106.039 322.464C106.108 322.619 106.202 322.747 106.319 322.848C106.442 322.944 106.583 323.016 106.743 323.064C106.908 323.107 107.084 323.128 107.271 323.128C107.522 323.128 107.751 323.104 107.959 323.056C108.167 323.003 108.362 322.928 108.543 322.832C108.73 322.736 108.906 322.621 109.071 322.488C109.242 322.355 109.407 322.203 109.567 322.032V320.352ZM104.967 317.04C105.415 316.608 105.898 316.285 106.415 316.072C106.932 315.859 107.506 315.752 108.135 315.752C108.588 315.752 108.991 315.827 109.343 315.976C109.695 316.125 109.991 316.333 110.231 316.6C110.471 316.867 110.652 317.189 110.775 317.568C110.898 317.947 110.959 318.363 110.959 318.816V324H110.327C110.188 324 110.082 323.979 110.007 323.936C109.932 323.888 109.874 323.797 109.831 323.664L109.671 322.896C109.458 323.093 109.25 323.269 109.047 323.424C108.844 323.573 108.631 323.701 108.407 323.808C108.183 323.909 107.943 323.987 107.687 324.04C107.436 324.099 107.156 324.128 106.847 324.128C106.532 324.128 106.236 324.085 105.959 324C105.682 323.909 105.439 323.776 105.231 323.6C105.028 323.424 104.866 323.203 104.743 322.936C104.626 322.664 104.567 322.344 104.567 321.976C104.567 321.656 104.655 321.349 104.831 321.056C105.007 320.757 105.292 320.493 105.687 320.264C106.082 320.035 106.596 319.848 107.231 319.704C107.866 319.555 108.644 319.469 109.567 319.448V318.816C109.567 318.187 109.431 317.712 109.159 317.392C108.887 317.067 108.49 316.904 107.967 316.904C107.615 316.904 107.319 316.949 107.079 317.04C106.844 317.125 106.639 317.224 106.463 317.336C106.292 317.443 106.143 317.541 106.015 317.632C105.892 317.717 105.77 317.76 105.647 317.76C105.551 317.76 105.468 317.736 105.399 317.688C105.33 317.635 105.271 317.571 105.223 317.496L104.967 317.04ZM114.472 317.072C114.648 316.875 114.835 316.696 115.032 316.536C115.229 316.376 115.437 316.24 115.656 316.128C115.88 316.011 116.115 315.923 116.36 315.864C116.611 315.8 116.88 315.768 117.168 315.768C117.611 315.768 118 315.843 118.336 315.992C118.677 316.136 118.96 316.344 119.184 316.616C119.413 316.883 119.587 317.205 119.704 317.584C119.821 317.963 119.88 318.381 119.88 318.84V324H118.448V318.84C118.448 318.227 118.307 317.752 118.024 317.416C117.747 317.075 117.323 316.904 116.752 316.904C116.331 316.904 115.936 317.005 115.568 317.208C115.205 317.411 114.869 317.685 114.56 318.032V324H113.128V315.896H113.984C114.187 315.896 114.312 315.995 114.36 316.192L114.472 317.072ZM126.442 320.352C125.786 320.373 125.226 320.427 124.762 320.512C124.303 320.592 123.927 320.699 123.634 320.832C123.346 320.965 123.135 321.123 123.002 321.304C122.874 321.485 122.81 321.688 122.81 321.912C122.81 322.125 122.845 322.309 122.914 322.464C122.983 322.619 123.077 322.747 123.194 322.848C123.317 322.944 123.458 323.016 123.618 323.064C123.783 323.107 123.959 323.128 124.146 323.128C124.397 323.128 124.626 323.104 124.834 323.056C125.042 323.003 125.237 322.928 125.418 322.832C125.605 322.736 125.781 322.621 125.946 322.488C126.117 322.355 126.282 322.203 126.442 322.032V320.352ZM121.842 317.04C122.29 316.608 122.773 316.285 123.29 316.072C123.807 315.859 124.381 315.752 125.01 315.752C125.463 315.752 125.866 315.827 126.218 315.976C126.57 316.125 126.866 316.333 127.106 316.6C127.346 316.867 127.527 317.189 127.65 317.568C127.773 317.947 127.834 318.363 127.834 318.816V324H127.202C127.063 324 126.957 323.979 126.882 323.936C126.807 323.888 126.749 323.797 126.706 323.664L126.546 322.896C126.333 323.093 126.125 323.269 125.922 323.424C125.719 323.573 125.506 323.701 125.282 323.808C125.058 323.909 124.818 323.987 124.562 324.04C124.311 324.099 124.031 324.128 123.722 324.128C123.407 324.128 123.111 324.085 122.834 324C122.557 323.909 122.314 323.776 122.106 323.6C121.903 323.424 121.741 323.203 121.618 322.936C121.501 322.664 121.442 322.344 121.442 321.976C121.442 321.656 121.53 321.349 121.706 321.056C121.882 320.757 122.167 320.493 122.562 320.264C122.957 320.035 123.471 319.848 124.106 319.704C124.741 319.555 125.519 319.469 126.442 319.448V318.816C126.442 318.187 126.306 317.712 126.034 317.392C125.762 317.067 125.365 316.904 124.842 316.904C124.49 316.904 124.194 316.949 123.954 317.04C123.719 317.125 123.514 317.224 123.338 317.336C123.167 317.443 123.018 317.541 122.89 317.632C122.767 317.717 122.645 317.76 122.522 317.76C122.426 317.76 122.343 317.736 122.274 317.688C122.205 317.635 122.146 317.571 122.098 317.496L121.842 317.04ZM131.347 317.072C131.523 316.875 131.71 316.696 131.907 316.536C132.104 316.376 132.312 316.24 132.531 316.128C132.755 316.011 132.99 315.923 133.235 315.864C133.486 315.8 133.755 315.768 134.043 315.768C134.486 315.768 134.875 315.843 135.211 315.992C135.552 316.136 135.835 316.344 136.059 316.616C136.288 316.883 136.462 317.205 136.579 317.584C136.696 317.963 136.755 318.381 136.755 318.84V324H135.323V318.84C135.323 318.227 135.182 317.752 134.899 317.416C134.622 317.075 134.198 316.904 133.627 316.904C133.206 316.904 132.811 317.005 132.443 317.208C132.08 317.411 131.744 317.685 131.435 318.032V324H130.003V315.896H130.859C131.062 315.896 131.187 315.995 131.235 316.192L131.347 317.072ZM147.411 320.352C146.755 320.373 146.195 320.427 145.731 320.512C145.272 320.592 144.896 320.699 144.603 320.832C144.315 320.965 144.104 321.123 143.971 321.304C143.843 321.485 143.779 321.688 143.779 321.912C143.779 322.125 143.813 322.309 143.883 322.464C143.952 322.619 144.045 322.747 144.163 322.848C144.285 322.944 144.427 323.016 144.587 323.064C144.752 323.107 144.928 323.128 145.115 323.128C145.365 323.128 145.595 323.104 145.803 323.056C146.011 323.003 146.205 322.928 146.387 322.832C146.573 322.736 146.749 322.621 146.915 322.488C147.085 322.355 147.251 322.203 147.411 322.032V320.352ZM142.811 317.04C143.259 316.608 143.741 316.285 144.259 316.072C144.776 315.859 145.349 315.752 145.979 315.752C146.432 315.752 146.835 315.827 147.187 315.976C147.539 316.125 147.835 316.333 148.075 316.6C148.315 316.867 148.496 317.189 148.619 317.568C148.741 317.947 148.803 318.363 148.803 318.816V324H148.171C148.032 324 147.925 323.979 147.851 323.936C147.776 323.888 147.717 323.797 147.675 323.664L147.515 322.896C147.301 323.093 147.093 323.269 146.891 323.424C146.688 323.573 146.475 323.701 146.251 323.808C146.027 323.909 145.787 323.987 145.531 324.04C145.28 324.099 145 324.128 144.691 324.128C144.376 324.128 144.08 324.085 143.803 324C143.525 323.909 143.283 323.776 143.075 323.6C142.872 323.424 142.709 323.203 142.587 322.936C142.469 322.664 142.411 322.344 142.411 321.976C142.411 321.656 142.499 321.349 142.675 321.056C142.851 320.757 143.136 320.493 143.531 320.264C143.925 320.035 144.44 319.848 145.075 319.704C145.709 319.555 146.488 319.469 147.411 319.448V318.816C147.411 318.187 147.275 317.712 147.003 317.392C146.731 317.067 146.333 316.904 145.811 316.904C145.459 316.904 145.163 316.949 144.923 317.04C144.688 317.125 144.483 317.224 144.307 317.336C144.136 317.443 143.987 317.541 143.859 317.632C143.736 317.717 143.613 317.76 143.491 317.76C143.395 317.76 143.312 317.736 143.243 317.688C143.173 317.635 143.115 317.571 143.067 317.496L142.811 317.04ZM152.404 312.216V319.152H152.772C152.878 319.152 152.966 319.139 153.036 319.112C153.11 319.08 153.188 319.019 153.268 318.928L155.828 316.184C155.902 316.093 155.98 316.024 156.06 315.976C156.145 315.923 156.257 315.896 156.396 315.896H157.684L154.7 319.072C154.556 319.253 154.401 319.395 154.236 319.496C154.332 319.56 154.417 319.635 154.492 319.72C154.572 319.8 154.646 319.893 154.716 320L157.884 324H156.612C156.489 324 156.382 323.981 156.292 323.944C156.206 323.901 156.132 323.827 156.068 323.72L153.404 320.4C153.324 320.288 153.244 320.216 153.164 320.184C153.089 320.147 152.972 320.128 152.812 320.128H152.404V324H150.972V312.216H152.404ZM163.489 320.352C162.833 320.373 162.273 320.427 161.809 320.512C161.35 320.592 160.974 320.699 160.681 320.832C160.393 320.965 160.182 321.123 160.049 321.304C159.921 321.485 159.857 321.688 159.857 321.912C159.857 322.125 159.891 322.309 159.961 322.464C160.03 322.619 160.123 322.747 160.241 322.848C160.363 322.944 160.505 323.016 160.665 323.064C160.83 323.107 161.006 323.128 161.193 323.128C161.443 323.128 161.673 323.104 161.881 323.056C162.089 323.003 162.283 322.928 162.465 322.832C162.651 322.736 162.827 322.621 162.993 322.488C163.163 322.355 163.329 322.203 163.489 322.032V320.352ZM158.889 317.04C159.337 316.608 159.819 316.285 160.337 316.072C160.854 315.859 161.427 315.752 162.057 315.752C162.51 315.752 162.913 315.827 163.265 315.976C163.617 316.125 163.913 316.333 164.153 316.6C164.393 316.867 164.574 317.189 164.697 317.568C164.819 317.947 164.881 318.363 164.881 318.816V324H164.249C164.11 324 164.003 323.979 163.929 323.936C163.854 323.888 163.795 323.797 163.753 323.664L163.593 322.896C163.379 323.093 163.171 323.269 162.969 323.424C162.766 323.573 162.553 323.701 162.329 323.808C162.105 323.909 161.865 323.987 161.609 324.04C161.358 324.099 161.078 324.128 160.769 324.128C160.454 324.128 160.158 324.085 159.881 324C159.603 323.909 159.361 323.776 159.153 323.6C158.95 323.424 158.787 323.203 158.665 322.936C158.547 322.664 158.489 322.344 158.489 321.976C158.489 321.656 158.577 321.349 158.753 321.056C158.929 320.757 159.214 320.493 159.609 320.264C160.003 320.035 160.518 319.848 161.153 319.704C161.787 319.555 162.566 319.469 163.489 319.448V318.816C163.489 318.187 163.353 317.712 163.081 317.392C162.809 317.067 162.411 316.904 161.889 316.904C161.537 316.904 161.241 316.949 161.001 317.04C160.766 317.125 160.561 317.224 160.385 317.336C160.214 317.443 160.065 317.541 159.937 317.632C159.814 317.717 159.691 317.76 159.569 317.76C159.473 317.76 159.39 317.736 159.321 317.688C159.251 317.635 159.193 317.571 159.145 317.496L158.889 317.04ZM168.394 317.072C168.57 316.875 168.757 316.696 168.954 316.536C169.151 316.376 169.359 316.24 169.578 316.128C169.802 316.011 170.037 315.923 170.282 315.864C170.533 315.8 170.802 315.768 171.09 315.768C171.533 315.768 171.922 315.843 172.258 315.992C172.599 316.136 172.882 316.344 173.106 316.616C173.335 316.883 173.509 317.205 173.626 317.584C173.743 317.963 173.802 318.381 173.802 318.84V324H172.37V318.84C172.37 318.227 172.229 317.752 171.946 317.416C171.669 317.075 171.245 316.904 170.674 316.904C170.253 316.904 169.858 317.005 169.49 317.208C169.127 317.411 168.791 317.685 168.482 318.032V324H167.05V315.896H167.906C168.109 315.896 168.234 315.995 168.282 316.192L168.394 317.072ZM182.554 324.128C181.914 324.128 181.42 323.949 181.074 323.592C180.732 323.235 180.562 322.72 180.562 322.048V317.088H179.586C179.5 317.088 179.428 317.064 179.37 317.016C179.311 316.963 179.282 316.883 179.282 316.776V316.208L180.61 316.04L180.938 313.536C180.954 313.456 180.988 313.392 181.042 313.344C181.1 313.291 181.175 313.264 181.266 313.264H181.986V316.056H184.33V317.088H181.986V321.952C181.986 322.293 182.068 322.547 182.234 322.712C182.399 322.877 182.612 322.96 182.874 322.96C183.023 322.96 183.151 322.941 183.258 322.904C183.37 322.861 183.466 322.816 183.546 322.768C183.626 322.72 183.692 322.677 183.746 322.64C183.804 322.597 183.855 322.576 183.898 322.576C183.972 322.576 184.039 322.621 184.098 322.712L184.514 323.392C184.268 323.621 183.972 323.803 183.626 323.936C183.279 324.064 182.922 324.128 182.554 324.128ZM190.192 320.352C189.536 320.373 188.976 320.427 188.512 320.512C188.053 320.592 187.677 320.699 187.384 320.832C187.096 320.965 186.885 321.123 186.752 321.304C186.624 321.485 186.56 321.688 186.56 321.912C186.56 322.125 186.595 322.309 186.664 322.464C186.733 322.619 186.827 322.747 186.944 322.848C187.067 322.944 187.208 323.016 187.368 323.064C187.533 323.107 187.709 323.128 187.896 323.128C188.147 323.128 188.376 323.104 188.584 323.056C188.792 323.003 188.987 322.928 189.168 322.832C189.355 322.736 189.531 322.621 189.696 322.488C189.867 322.355 190.032 322.203 190.192 322.032V320.352ZM185.592 317.04C186.04 316.608 186.523 316.285 187.04 316.072C187.557 315.859 188.131 315.752 188.76 315.752C189.213 315.752 189.616 315.827 189.968 315.976C190.32 316.125 190.616 316.333 190.856 316.6C191.096 316.867 191.277 317.189 191.4 317.568C191.523 317.947 191.584 318.363 191.584 318.816V324H190.952C190.813 324 190.707 323.979 190.632 323.936C190.557 323.888 190.499 323.797 190.456 323.664L190.296 322.896C190.083 323.093 189.875 323.269 189.672 323.424C189.469 323.573 189.256 323.701 189.032 323.808C188.808 323.909 188.568 323.987 188.312 324.04C188.061 324.099 187.781 324.128 187.472 324.128C187.157 324.128 186.861 324.085 186.584 324C186.307 323.909 186.064 323.776 185.856 323.6C185.653 323.424 185.491 323.203 185.368 322.936C185.251 322.664 185.192 322.344 185.192 321.976C185.192 321.656 185.28 321.349 185.456 321.056C185.632 320.757 185.917 320.493 186.312 320.264C186.707 320.035 187.221 319.848 187.856 319.704C188.491 319.555 189.269 319.469 190.192 319.448V318.816C190.192 318.187 190.056 317.712 189.784 317.392C189.512 317.067 189.115 316.904 188.592 316.904C188.24 316.904 187.944 316.949 187.704 317.04C187.469 317.125 187.264 317.224 187.088 317.336C186.917 317.443 186.768 317.541 186.64 317.632C186.517 317.717 186.395 317.76 186.272 317.76C186.176 317.76 186.093 317.736 186.024 317.688C185.955 317.635 185.896 317.571 185.848 317.496L185.592 317.04ZM193.753 324V315.896H194.609C194.812 315.896 194.937 315.995 194.985 316.192L195.089 317.024C195.388 316.656 195.724 316.355 196.097 316.12C196.47 315.885 196.902 315.768 197.393 315.768C197.937 315.768 198.377 315.92 198.713 316.224C199.054 316.528 199.3 316.939 199.449 317.456C199.566 317.163 199.716 316.909 199.897 316.696C200.084 316.483 200.292 316.307 200.521 316.168C200.75 316.029 200.993 315.928 201.249 315.864C201.51 315.8 201.774 315.768 202.041 315.768C202.468 315.768 202.846 315.837 203.177 315.976C203.513 316.109 203.796 316.307 204.025 316.568C204.26 316.829 204.438 317.152 204.561 317.536C204.684 317.915 204.745 318.349 204.745 318.84V324H203.313V318.84C203.313 318.205 203.174 317.725 202.897 317.4C202.62 317.069 202.22 316.904 201.697 316.904C201.462 316.904 201.238 316.947 201.025 317.032C200.817 317.112 200.633 317.232 200.473 317.392C200.313 317.552 200.185 317.755 200.089 318C199.998 318.24 199.953 318.52 199.953 318.84V324H198.521V318.84C198.521 318.189 198.39 317.704 198.129 317.384C197.868 317.064 197.486 316.904 196.985 316.904C196.633 316.904 196.308 317 196.009 317.192C195.71 317.379 195.436 317.635 195.185 317.96V324H193.753ZM208.341 322.048C208.603 322.4 208.888 322.648 209.197 322.792C209.507 322.936 209.853 323.008 210.237 323.008C210.995 323.008 211.576 322.739 211.981 322.2C212.387 321.661 212.589 320.893 212.589 319.896C212.589 319.368 212.541 318.915 212.445 318.536C212.355 318.157 212.221 317.848 212.045 317.608C211.869 317.363 211.653 317.184 211.397 317.072C211.141 316.96 210.851 316.904 210.525 316.904C210.061 316.904 209.653 317.011 209.301 317.224C208.955 317.437 208.635 317.739 208.341 318.128V322.048ZM208.269 317.152C208.611 316.731 209.005 316.392 209.453 316.136C209.901 315.88 210.413 315.752 210.989 315.752C211.459 315.752 211.883 315.843 212.261 316.024C212.64 316.2 212.963 316.464 213.229 316.816C213.496 317.163 213.701 317.595 213.845 318.112C213.989 318.629 214.061 319.224 214.061 319.896C214.061 320.493 213.981 321.051 213.821 321.568C213.661 322.08 213.429 322.525 213.125 322.904C212.827 323.277 212.459 323.573 212.021 323.792C211.589 324.005 211.101 324.112 210.557 324.112C210.061 324.112 209.635 324.029 209.277 323.864C208.925 323.693 208.613 323.459 208.341 323.16V326.744H206.909V315.896H207.765C207.968 315.896 208.093 315.995 208.141 316.192L208.269 317.152ZM217.382 315.896V324H215.958V315.896H217.382ZM217.686 313.352C217.686 313.491 217.657 313.621 217.598 313.744C217.545 313.861 217.47 313.968 217.374 314.064C217.283 314.155 217.174 314.227 217.046 314.28C216.923 314.333 216.793 314.36 216.654 314.36C216.515 314.36 216.385 314.333 216.262 314.28C216.145 314.227 216.041 314.155 215.95 314.064C215.859 313.968 215.787 313.861 215.734 313.744C215.681 313.621 215.654 313.491 215.654 313.352C215.654 313.213 215.681 313.083 215.734 312.96C215.787 312.832 215.859 312.723 215.95 312.632C216.041 312.536 216.145 312.461 216.262 312.408C216.385 312.355 216.515 312.328 216.654 312.328C216.793 312.328 216.923 312.355 217.046 312.408C217.174 312.461 217.283 312.536 217.374 312.632C217.47 312.723 217.545 312.832 217.598 312.96C217.657 313.083 217.686 313.213 217.686 313.352ZM221.194 312.216V324H219.77V312.216H221.194ZM232.877 317.824C232.61 317.467 232.322 317.219 232.013 317.08C231.703 316.936 231.357 316.864 230.973 316.864C230.221 316.864 229.642 317.133 229.237 317.672C228.831 318.211 228.629 318.979 228.629 319.976C228.629 320.504 228.674 320.957 228.765 321.336C228.855 321.709 228.989 322.019 229.165 322.264C229.341 322.504 229.557 322.68 229.813 322.792C230.069 322.904 230.359 322.96 230.685 322.96C231.154 322.96 231.562 322.853 231.909 322.64C232.261 322.427 232.583 322.125 232.877 321.736V317.824ZM234.301 312.216V324H233.453C233.25 324 233.122 323.901 233.069 323.704L232.941 322.72C232.594 323.136 232.199 323.472 231.757 323.728C231.314 323.984 230.802 324.112 230.221 324.112C229.757 324.112 229.335 324.024 228.957 323.848C228.578 323.667 228.255 323.403 227.989 323.056C227.722 322.709 227.517 322.277 227.373 321.76C227.229 321.243 227.157 320.648 227.157 319.976C227.157 319.379 227.237 318.824 227.397 318.312C227.557 317.795 227.786 317.347 228.085 316.968C228.383 316.589 228.749 316.293 229.181 316.08C229.618 315.861 230.109 315.752 230.653 315.752C231.149 315.752 231.573 315.837 231.925 316.008C232.282 316.173 232.599 316.405 232.877 316.704V312.216H234.301ZM238.054 315.896V324H236.63V315.896H238.054ZM238.358 313.352C238.358 313.491 238.329 313.621 238.27 313.744C238.217 313.861 238.142 313.968 238.046 314.064C237.955 314.155 237.846 314.227 237.718 314.28C237.595 314.333 237.465 314.36 237.326 314.36C237.187 314.36 237.057 314.333 236.934 314.28C236.817 314.227 236.713 314.155 236.622 314.064C236.531 313.968 236.459 313.861 236.406 313.744C236.353 313.621 236.326 313.491 236.326 313.352C236.326 313.213 236.353 313.083 236.406 312.96C236.459 312.832 236.531 312.723 236.622 312.632C236.713 312.536 236.817 312.461 236.934 312.408C237.057 312.355 237.187 312.328 237.326 312.328C237.465 312.328 237.595 312.355 237.718 312.408C237.846 312.461 237.955 312.536 238.046 312.632C238.142 312.723 238.217 312.832 238.27 312.96C238.329 313.083 238.358 313.213 238.358 313.352ZM245.114 317.232C245.05 317.349 244.951 317.408 244.818 317.408C244.738 317.408 244.647 317.379 244.546 317.32C244.444 317.261 244.319 317.197 244.17 317.128C244.026 317.053 243.852 316.987 243.65 316.928C243.447 316.864 243.207 316.832 242.93 316.832C242.69 316.832 242.474 316.864 242.282 316.928C242.09 316.987 241.924 317.069 241.786 317.176C241.652 317.283 241.548 317.408 241.474 317.552C241.404 317.691 241.37 317.843 241.37 318.008C241.37 318.216 241.428 318.389 241.546 318.528C241.668 318.667 241.828 318.787 242.026 318.888C242.223 318.989 242.447 319.08 242.698 319.16C242.948 319.235 243.204 319.317 243.466 319.408C243.732 319.493 243.991 319.589 244.242 319.696C244.492 319.803 244.716 319.936 244.914 320.096C245.111 320.256 245.268 320.453 245.386 320.688C245.508 320.917 245.57 321.195 245.57 321.52C245.57 321.893 245.503 322.24 245.37 322.56C245.236 322.875 245.039 323.149 244.778 323.384C244.516 323.613 244.196 323.795 243.818 323.928C243.439 324.061 243.002 324.128 242.506 324.128C241.94 324.128 241.428 324.037 240.97 323.856C240.511 323.669 240.122 323.432 239.802 323.144L240.138 322.6C240.18 322.531 240.231 322.477 240.29 322.44C240.348 322.403 240.423 322.384 240.514 322.384C240.61 322.384 240.711 322.421 240.818 322.496C240.924 322.571 241.052 322.653 241.202 322.744C241.356 322.835 241.543 322.917 241.762 322.992C241.98 323.067 242.252 323.104 242.578 323.104C242.855 323.104 243.098 323.069 243.306 323C243.514 322.925 243.687 322.827 243.826 322.704C243.964 322.581 244.066 322.44 244.13 322.28C244.199 322.12 244.234 321.949 244.234 321.768C244.234 321.544 244.172 321.36 244.05 321.216C243.932 321.067 243.775 320.941 243.578 320.84C243.38 320.733 243.154 320.643 242.898 320.568C242.647 320.488 242.388 320.405 242.122 320.32C241.86 320.235 241.602 320.139 241.346 320.032C241.095 319.92 240.871 319.781 240.674 319.616C240.476 319.451 240.316 319.248 240.194 319.008C240.076 318.763 240.018 318.467 240.018 318.12C240.018 317.811 240.082 317.515 240.21 317.232C240.338 316.944 240.524 316.693 240.77 316.48C241.015 316.261 241.316 316.088 241.674 315.96C242.031 315.832 242.439 315.768 242.898 315.768C243.431 315.768 243.908 315.853 244.33 316.024C244.756 316.189 245.124 316.419 245.434 316.712L245.114 317.232ZM248.82 315.896V324H247.396V315.896H248.82ZM249.124 313.352C249.124 313.491 249.094 313.621 249.036 313.744C248.982 313.861 248.908 313.968 248.812 314.064C248.721 314.155 248.612 314.227 248.484 314.28C248.361 314.333 248.23 314.36 248.092 314.36C247.953 314.36 247.822 314.333 247.7 314.28C247.582 314.227 247.478 314.155 247.388 314.064C247.297 313.968 247.225 313.861 247.172 313.744C247.118 313.621 247.092 313.491 247.092 313.352C247.092 313.213 247.118 313.083 247.172 312.96C247.225 312.832 247.297 312.723 247.388 312.632C247.478 312.536 247.582 312.461 247.7 312.408C247.822 312.355 247.953 312.328 248.092 312.328C248.23 312.328 248.361 312.355 248.484 312.408C248.612 312.461 248.721 312.536 248.812 312.632C248.908 312.723 248.982 312.832 249.036 312.96C249.094 313.083 249.124 313.213 249.124 313.352ZM252.503 317.072C252.679 316.875 252.866 316.696 253.063 316.536C253.261 316.376 253.469 316.24 253.687 316.128C253.911 316.011 254.146 315.923 254.391 315.864C254.642 315.8 254.911 315.768 255.199 315.768C255.642 315.768 256.031 315.843 256.367 315.992C256.709 316.136 256.991 316.344 257.215 316.616C257.445 316.883 257.618 317.205 257.735 317.584C257.853 317.963 257.911 318.381 257.911 318.84V324H256.479V318.84C256.479 318.227 256.338 317.752 256.055 317.416C255.778 317.075 255.354 316.904 254.783 316.904C254.362 316.904 253.967 317.005 253.599 317.208C253.237 317.411 252.901 317.685 252.591 318.032V324H251.159V315.896H252.015C252.218 315.896 252.343 315.995 252.391 316.192L252.503 317.072ZM261.585 315.896V324H260.161V315.896H261.585ZM261.889 313.352C261.889 313.491 261.86 313.621 261.801 313.744C261.748 313.861 261.673 313.968 261.577 314.064C261.486 314.155 261.377 314.227 261.249 314.28C261.126 314.333 260.996 314.36 260.857 314.36C260.718 314.36 260.588 314.333 260.465 314.28C260.348 314.227 260.244 314.155 260.153 314.064C260.062 313.968 259.99 313.861 259.937 313.744C259.884 313.621 259.857 313.491 259.857 313.352C259.857 313.213 259.884 313.083 259.937 312.96C259.99 312.832 260.062 312.723 260.153 312.632C260.244 312.536 260.348 312.461 260.465 312.408C260.588 312.355 260.718 312.328 260.857 312.328C260.996 312.328 261.126 312.355 261.249 312.408C261.377 312.461 261.486 312.536 261.577 312.632C261.673 312.723 261.748 312.832 261.801 312.96C261.86 313.083 261.889 313.213 261.889 313.352Z" fill="#0E9B8B"/>
<g clip-path="url(#clip0_803_2603)">
<path d="M194.304 68.621V129.838C194.313 130.996 193.604 132.037 192.524 132.454L148.002 149.15C147.679 149.259 147.341 149.316 147 149.317V57.4907L191.522 65.8385C193.059 65.8383 194.304 67.0842 194.304 68.621Z" fill="url(#paint0_linear_803_2603)"/>
<path d="M147 57.4902V149.316C146.659 149.315 146.321 149.259 145.998 149.149L101.476 132.454C100.397 132.037 99.6873 130.995 99.6954 129.838V68.6207C99.6954 67.084 100.941 65.8381 102.478 65.8381L147 57.4902Z" fill="url(#paint1_linear_803_2603)"/>
<path d="M149.41 56.0935C148.849 55.127 147.764 54.5901 146.655 54.73L102.134 60.2951C101.381 60.394 100.701 60.796 100.252 61.4082L83.5568 83.669C82.6346 84.8985 82.8837 86.6426 84.1132 87.5645C84.5948 87.9258 85.1807 88.121 85.7828 88.121C85.8978 88.1278 86.0129 88.1278 86.1279 88.121L130.65 82.5559C131.406 82.4515 132.086 82.0409 132.531 81.4205L149.226 59.1598C149.897 58.2671 149.97 57.0598 149.41 56.0935Z" fill="#0D8678"/>
<path d="M210.444 83.6467L193.748 61.386C193.3 60.774 192.62 60.372 191.867 60.2728L147.346 54.7077C145.822 54.5071 144.424 55.5798 144.224 57.1035C144.128 57.835 144.326 58.5746 144.775 59.16L161.47 81.4207C161.919 82.0327 162.599 82.4347 163.351 82.5339L207.873 88.099C207.988 88.1058 208.103 88.1058 208.218 88.099C209.755 88.099 211.001 86.8531 211.001 85.3163C211.001 84.7142 210.805 84.1283 210.444 83.6467Z" fill="#0D8678"/>
</g>
<defs>
<linearGradient id="paint0_linear_803_2603" x1="170.652" y1="57.4907" x2="170.652" y2="149.317" gradientUnits="userSpaceOnUse">
<stop stop-color="#30C0B0"/>
<stop offset="1" stop-color="#D4EC40"/>
</linearGradient>
<linearGradient id="paint1_linear_803_2603" x1="123.348" y1="57.4902" x2="123.348" y2="149.316" gradientUnits="userSpaceOnUse">
<stop stop-color="#30C0B0"/>
<stop offset="1" stop-color="#006D61"/>
</linearGradient>
<clipPath id="clip0_803_2603">
<rect width="128" height="128" fill="white" transform="translate(83 38)"/>
</clipPath>
</defs>
</svg>
